<mxfile host="app.diagrams.net" agent="Mozilla/5.0 (Windows NT 10.0; Win64; x64) AppleWebKit/537.36 (KHTML, like Gecko) Chrome/135.0.0.0 Safari/537.36" version="26.2.9" pages="3">
  <diagram id="C5RBs43oDa-KdzZeNtuy" name="Page-1">
    <mxGraphModel dx="999" dy="1031" grid="1" gridSize="10" guides="1" tooltips="1" connect="1" arrows="1" fold="1" page="0" pageScale="1" pageWidth="1169" pageHeight="827" background="none" math="0" shadow="0">
      <root>
        <mxCell id="WIyWlLk6GJQsqaUBKTNV-0" />
        <mxCell id="WIyWlLk6GJQsqaUBKTNV-1" parent="WIyWlLk6GJQsqaUBKTNV-0" />
        <mxCell id="zkfFHV4jXpPFQw0GAbJ--0" value="Page" style="swimlane;fontStyle=2;align=center;verticalAlign=middle;childLayout=stackLayout;horizontal=1;startSize=30;horizontalStack=0;resizeParent=1;resizeLast=0;collapsible=1;marginBottom=0;rounded=0;shadow=0;strokeWidth=1;fillColor=#dae8fc;strokeColor=#6c8ebf;gradientColor=none;glass=0;labelPosition=center;verticalLabelPosition=middle;arcSize=17;" parent="WIyWlLk6GJQsqaUBKTNV-1" vertex="1">
          <mxGeometry x="100" y="-50" width="310" height="278" as="geometry">
            <mxRectangle x="230" y="140" width="160" height="26" as="alternateBounds" />
          </mxGeometry>
        </mxCell>
        <mxCell id="zkfFHV4jXpPFQw0GAbJ--1" value="Trang chủ" style="text;align=left;verticalAlign=middle;spacingLeft=4;spacingRight=4;overflow=hidden;rotatable=1;points=[[0,0.5],[1,0.5]];portConstraint=eastwest;fillColor=none;horizontal=1;spacingTop=0;container=0;movable=1;resizable=1;deletable=1;editable=1;locked=0;connectable=1;fillStyle=dashed;strokeColor=none;" parent="zkfFHV4jXpPFQw0GAbJ--0" vertex="1">
          <mxGeometry y="30" width="310" height="26" as="geometry" />
        </mxCell>
        <mxCell id="NB2SkCXfuX6RsvM2COgK-0" value="Trang admin" style="text;align=left;verticalAlign=top;spacingLeft=4;spacingRight=4;overflow=hidden;rotatable=0;points=[[0,0.5],[1,0.5]];portConstraint=eastwest;" parent="zkfFHV4jXpPFQw0GAbJ--0" vertex="1">
          <mxGeometry y="56" width="310" height="26" as="geometry" />
        </mxCell>
        <mxCell id="zkfFHV4jXpPFQw0GAbJ--2" value="Trang danh sách sản phẩm" style="text;align=left;verticalAlign=top;spacingLeft=4;spacingRight=4;overflow=hidden;rotatable=0;points=[[0,0.5],[1,0.5]];portConstraint=eastwest;rounded=0;shadow=0;html=0;fontStyle=0;labelBackgroundColor=none;" parent="zkfFHV4jXpPFQw0GAbJ--0" vertex="1">
          <mxGeometry y="82" width="310" height="26" as="geometry" />
        </mxCell>
        <mxCell id="zkfFHV4jXpPFQw0GAbJ--5" value="Trang chi tiết sản phẩm" style="text;align=left;verticalAlign=top;spacingLeft=4;spacingRight=4;overflow=hidden;rotatable=0;points=[[0,0.5],[1,0.5]];portConstraint=eastwest;" parent="zkfFHV4jXpPFQw0GAbJ--0" vertex="1">
          <mxGeometry y="108" width="310" height="26" as="geometry" />
        </mxCell>
        <mxCell id="zkfFHV4jXpPFQw0GAbJ--3" value="Trang đăng nhập" style="text;align=left;verticalAlign=top;spacingLeft=4;spacingRight=4;overflow=hidden;rotatable=0;points=[[0,0.5],[1,0.5]];portConstraint=eastwest;rounded=0;shadow=0;html=0;" parent="zkfFHV4jXpPFQw0GAbJ--0" vertex="1">
          <mxGeometry y="134" width="310" height="26" as="geometry" />
        </mxCell>
        <mxCell id="3YXD5WL7k8-5RHGGD3u7-1" value="Trang thanh toán" style="text;align=left;verticalAlign=top;spacingLeft=4;spacingRight=4;overflow=hidden;rotatable=0;points=[[0,0.5],[1,0.5]];portConstraint=eastwest;" parent="zkfFHV4jXpPFQw0GAbJ--0" vertex="1">
          <mxGeometry y="160" width="310" height="26" as="geometry" />
        </mxCell>
        <mxCell id="oP2LaHglNJmHAS7Rxr_d-0" value="Trang info + trạng thái đơn hàng" style="text;align=left;verticalAlign=top;spacingLeft=4;spacingRight=4;overflow=hidden;rotatable=0;points=[[0,0.5],[1,0.5]];portConstraint=eastwest;" parent="zkfFHV4jXpPFQw0GAbJ--0" vertex="1">
          <mxGeometry y="186" width="310" height="26" as="geometry" />
        </mxCell>
      </root>
    </mxGraphModel>
  </diagram>
  <diagram id="ng6bCuu9ps39AD-uG_Up" name="Trang-2">
    <mxGraphModel dx="2168" dy="631" grid="1" gridSize="10" guides="1" tooltips="1" connect="1" arrows="1" fold="1" page="1" pageScale="1" pageWidth="1169" pageHeight="827" math="0" shadow="0">
      <root>
        <mxCell id="0" />
        <mxCell id="1" parent="0" />
        <mxCell id="6G9M2cNqyrZpUoSZgNi6-38" value="Customer" style="swimlane;startSize=30;fillColor=#f8cecc;strokeColor=#b85450;" parent="1" vertex="1">
          <mxGeometry x="540" y="600" width="330" height="370" as="geometry" />
        </mxCell>
        <mxCell id="6G9M2cNqyrZpUoSZgNi6-39" value="_id" style="text;html=1;align=center;verticalAlign=middle;resizable=0;points=[];autosize=1;strokeColor=none;fillColor=default;fontStyle=1;labelBorderColor=none;labelBackgroundColor=none;fontColor=light-dark(#ff0000, #ededed);fontSize=13;" parent="6G9M2cNqyrZpUoSZgNi6-38" vertex="1">
          <mxGeometry x="20" y="40" width="40" height="30" as="geometry" />
        </mxCell>
        <mxCell id="6G9M2cNqyrZpUoSZgNi6-40" value="String (required)" style="text;html=1;align=center;verticalAlign=middle;resizable=0;points=[];autosize=1;strokeColor=none;fillColor=none;" parent="6G9M2cNqyrZpUoSZgNi6-38" vertex="1">
          <mxGeometry x="70" y="40" width="110" height="30" as="geometry" />
        </mxCell>
        <mxCell id="6G9M2cNqyrZpUoSZgNi6-42" value="email" style="text;html=1;align=center;verticalAlign=middle;resizable=0;points=[];autosize=1;strokeColor=none;fillColor=default;fontStyle=1;labelBorderColor=none;labelBackgroundColor=none;fontColor=light-dark(#ff0000, #ededed);fontSize=13;" parent="6G9M2cNqyrZpUoSZgNi6-38" vertex="1">
          <mxGeometry x="20" y="70" width="50" height="30" as="geometry" />
        </mxCell>
        <mxCell id="6G9M2cNqyrZpUoSZgNi6-43" value="unique, required" style="text;html=1;align=center;verticalAlign=middle;resizable=0;points=[];autosize=1;strokeColor=none;fillColor=none;" parent="6G9M2cNqyrZpUoSZgNi6-38" vertex="1">
          <mxGeometry x="70" y="70" width="110" height="30" as="geometry" />
        </mxCell>
        <mxCell id="6G9M2cNqyrZpUoSZgNi6-44" value="userName" style="text;html=1;align=center;verticalAlign=middle;resizable=0;points=[];autosize=1;strokeColor=none;fillColor=default;fontStyle=1;labelBorderColor=none;labelBackgroundColor=none;fontColor=light-dark(#ff0000, #ededed);fontSize=13;" parent="6G9M2cNqyrZpUoSZgNi6-38" vertex="1">
          <mxGeometry x="20" y="100" width="80" height="30" as="geometry" />
        </mxCell>
        <mxCell id="6G9M2cNqyrZpUoSZgNi6-45" value="(unique, required) default from email" style="text;html=1;align=center;verticalAlign=middle;resizable=0;points=[];autosize=1;strokeColor=none;fillColor=none;" parent="6G9M2cNqyrZpUoSZgNi6-38" vertex="1">
          <mxGeometry x="100" y="100" width="220" height="30" as="geometry" />
        </mxCell>
        <mxCell id="6G9M2cNqyrZpUoSZgNi6-46" value="password" style="text;html=1;align=center;verticalAlign=middle;resizable=0;points=[];autosize=1;strokeColor=none;fillColor=default;fontStyle=1;labelBorderColor=none;labelBackgroundColor=none;fontColor=light-dark(#ff0000, #ededed);fontSize=13;" parent="6G9M2cNqyrZpUoSZgNi6-38" vertex="1">
          <mxGeometry x="20" y="130" width="80" height="30" as="geometry" />
        </mxCell>
        <mxCell id="6G9M2cNqyrZpUoSZgNi6-47" value="String (required)" style="text;html=1;align=center;verticalAlign=middle;resizable=0;points=[];autosize=1;strokeColor=none;fillColor=none;" parent="6G9M2cNqyrZpUoSZgNi6-38" vertex="1">
          <mxGeometry x="100" y="130" width="110" height="30" as="geometry" />
        </mxCell>
        <mxCell id="jI9gdEdgTyAprfT7nVUG-5" value="role" style="text;html=1;align=center;verticalAlign=middle;resizable=0;points=[];autosize=1;strokeColor=none;fillColor=default;fontStyle=1;labelBorderColor=none;labelBackgroundColor=none;fontColor=light-dark(#ff0000, #ededed);fontSize=13;" parent="6G9M2cNqyrZpUoSZgNi6-38" vertex="1">
          <mxGeometry x="20" y="160" width="50" height="30" as="geometry" />
        </mxCell>
        <mxCell id="jI9gdEdgTyAprfT7nVUG-6" value="setDefault(client, admin)" style="text;html=1;align=center;verticalAlign=middle;resizable=0;points=[];autosize=1;strokeColor=none;fillColor=none;" parent="6G9M2cNqyrZpUoSZgNi6-38" vertex="1">
          <mxGeometry x="70" y="160" width="150" height="30" as="geometry" />
        </mxCell>
        <mxCell id="jI9gdEdgTyAprfT7nVUG-7" value="isActive" style="text;html=1;align=center;verticalAlign=middle;resizable=0;points=[];autosize=1;strokeColor=none;fillColor=default;fontStyle=1;labelBorderColor=none;labelBackgroundColor=none;fontColor=light-dark(#ff0000, #ededed);fontSize=13;" parent="6G9M2cNqyrZpUoSZgNi6-38" vertex="1">
          <mxGeometry x="20" y="250" width="70" height="30" as="geometry" />
        </mxCell>
        <mxCell id="jI9gdEdgTyAprfT7nVUG-8" value="Boolean &amp;lt;default: false&amp;gt;" style="text;html=1;align=center;verticalAlign=middle;resizable=0;points=[];autosize=1;strokeColor=none;fillColor=none;" parent="6G9M2cNqyrZpUoSZgNi6-38" vertex="1">
          <mxGeometry x="90" y="250" width="150" height="30" as="geometry" />
        </mxCell>
        <mxCell id="jI9gdEdgTyAprfT7nVUG-9" value="createdAt" style="text;html=1;align=center;verticalAlign=middle;resizable=0;points=[];autosize=1;strokeColor=none;fillColor=default;fontStyle=1;labelBorderColor=none;labelBackgroundColor=none;fontColor=light-dark(#ff0000, #ededed);fontSize=13;" parent="6G9M2cNqyrZpUoSZgNi6-38" vertex="1">
          <mxGeometry x="20" y="280" width="80" height="30" as="geometry" />
        </mxCell>
        <mxCell id="jI9gdEdgTyAprfT7nVUG-10" value="timeStamp &amp;lt;default: Date.now&amp;gt;" style="text;html=1;align=center;verticalAlign=middle;resizable=0;points=[];autosize=1;strokeColor=none;fillColor=none;" parent="6G9M2cNqyrZpUoSZgNi6-38" vertex="1">
          <mxGeometry x="100" y="280" width="190" height="30" as="geometry" />
        </mxCell>
        <mxCell id="jI9gdEdgTyAprfT7nVUG-11" value="updatedAt" style="text;html=1;align=center;verticalAlign=middle;resizable=0;points=[];autosize=1;strokeColor=none;fillColor=default;fontStyle=1;labelBorderColor=none;labelBackgroundColor=none;fontColor=light-dark(#ff0000, #ededed);fontSize=13;" parent="6G9M2cNqyrZpUoSZgNi6-38" vertex="1">
          <mxGeometry x="20" y="310" width="80" height="30" as="geometry" />
        </mxCell>
        <mxCell id="jI9gdEdgTyAprfT7nVUG-12" value="timeStamp &amp;lt;default: null&amp;gt;" style="text;html=1;align=center;verticalAlign=middle;resizable=0;points=[];autosize=1;strokeColor=none;fillColor=none;" parent="6G9M2cNqyrZpUoSZgNi6-38" vertex="1">
          <mxGeometry x="115" y="310" width="160" height="30" as="geometry" />
        </mxCell>
        <mxCell id="5oWb3moPzR1slxHsIN2l-1" value="address" style="text;html=1;align=center;verticalAlign=middle;resizable=0;points=[];autosize=1;strokeColor=none;fillColor=default;fontStyle=1;labelBorderColor=none;labelBackgroundColor=none;fontColor=light-dark(#ff0000, #ededed);fontSize=13;" parent="6G9M2cNqyrZpUoSZgNi6-38" vertex="1">
          <mxGeometry x="20" y="190" width="70" height="30" as="geometry" />
        </mxCell>
        <mxCell id="5oWb3moPzR1slxHsIN2l-2" value="String" style="text;html=1;align=center;verticalAlign=middle;resizable=0;points=[];autosize=1;strokeColor=none;fillColor=none;" parent="6G9M2cNqyrZpUoSZgNi6-38" vertex="1">
          <mxGeometry x="90" y="190" width="50" height="30" as="geometry" />
        </mxCell>
        <mxCell id="bX1wzmY2iIHJs9uKcJnH-1" value="phone" style="text;html=1;align=center;verticalAlign=middle;resizable=0;points=[];autosize=1;strokeColor=none;fillColor=default;fontStyle=1;labelBorderColor=none;labelBackgroundColor=none;fontColor=light-dark(#ff0000, #ededed);fontSize=13;" parent="6G9M2cNqyrZpUoSZgNi6-38" vertex="1">
          <mxGeometry x="25" y="220" width="60" height="30" as="geometry" />
        </mxCell>
        <mxCell id="bX1wzmY2iIHJs9uKcJnH-2" value="String" style="text;html=1;align=center;verticalAlign=middle;resizable=0;points=[];autosize=1;strokeColor=none;fillColor=none;" parent="6G9M2cNqyrZpUoSZgNi6-38" vertex="1">
          <mxGeometry x="90" y="220" width="50" height="30" as="geometry" />
        </mxCell>
        <mxCell id="jI9gdEdgTyAprfT7nVUG-13" value="Product" style="swimlane;startSize=30;fillColor=#dae8fc;strokeColor=#6c8ebf;" parent="1" vertex="1">
          <mxGeometry x="550" y="80" width="330" height="430" as="geometry" />
        </mxCell>
        <mxCell id="jI9gdEdgTyAprfT7nVUG-14" value="_id" style="text;html=1;align=center;verticalAlign=middle;resizable=0;points=[];autosize=1;strokeColor=none;fillColor=default;fontStyle=1;labelBorderColor=none;labelBackgroundColor=none;fontColor=light-dark(#ff0000, #ededed);fontSize=13;" parent="jI9gdEdgTyAprfT7nVUG-13" vertex="1">
          <mxGeometry x="20" y="40" width="40" height="30" as="geometry" />
        </mxCell>
        <mxCell id="jI9gdEdgTyAprfT7nVUG-15" value="String (required)" style="text;html=1;align=center;verticalAlign=middle;resizable=0;points=[];autosize=1;strokeColor=none;fillColor=none;" parent="jI9gdEdgTyAprfT7nVUG-13" vertex="1">
          <mxGeometry x="70" y="40" width="110" height="30" as="geometry" />
        </mxCell>
        <mxCell id="jI9gdEdgTyAprfT7nVUG-16" value="brand" style="text;html=1;align=center;verticalAlign=middle;resizable=0;points=[];autosize=1;strokeColor=none;fillColor=default;fontStyle=1;labelBorderColor=none;labelBackgroundColor=none;fontColor=light-dark(#ff0000, #ededed);fontSize=13;" parent="jI9gdEdgTyAprfT7nVUG-13" vertex="1">
          <mxGeometry x="20" y="130" width="60" height="30" as="geometry" />
        </mxCell>
        <mxCell id="jI9gdEdgTyAprfT7nVUG-17" value="String(required)" style="text;html=1;align=center;verticalAlign=middle;resizable=0;points=[];autosize=1;strokeColor=none;fillColor=none;" parent="jI9gdEdgTyAprfT7nVUG-13" vertex="1">
          <mxGeometry x="85" y="130" width="110" height="30" as="geometry" />
        </mxCell>
        <mxCell id="jI9gdEdgTyAprfT7nVUG-18" value="color" style="text;html=1;align=center;verticalAlign=middle;resizable=0;points=[];autosize=1;strokeColor=none;fillColor=default;fontStyle=1;labelBorderColor=none;labelBackgroundColor=none;fontColor=light-dark(#ff0000, #ededed);fontSize=13;" parent="jI9gdEdgTyAprfT7nVUG-13" vertex="1">
          <mxGeometry x="20" y="160" width="50" height="30" as="geometry" />
        </mxCell>
        <mxCell id="jI9gdEdgTyAprfT7nVUG-19" value="Array[]" style="text;html=1;align=center;verticalAlign=middle;resizable=0;points=[];autosize=1;strokeColor=none;fillColor=none;" parent="jI9gdEdgTyAprfT7nVUG-13" vertex="1">
          <mxGeometry x="85" y="160" width="60" height="30" as="geometry" />
        </mxCell>
        <mxCell id="jI9gdEdgTyAprfT7nVUG-20" value="size" style="text;html=1;align=center;verticalAlign=middle;resizable=0;points=[];autosize=1;strokeColor=none;fillColor=default;fontStyle=1;labelBorderColor=none;labelBackgroundColor=none;fontColor=light-dark(#ff0000, #ededed);fontSize=13;" parent="jI9gdEdgTyAprfT7nVUG-13" vertex="1">
          <mxGeometry x="20" y="190" width="50" height="30" as="geometry" />
        </mxCell>
        <mxCell id="jI9gdEdgTyAprfT7nVUG-21" value="Array[]" style="text;html=1;align=center;verticalAlign=middle;resizable=0;points=[];autosize=1;strokeColor=none;fillColor=none;" parent="jI9gdEdgTyAprfT7nVUG-13" vertex="1">
          <mxGeometry x="85" y="190" width="60" height="30" as="geometry" />
        </mxCell>
        <mxCell id="jI9gdEdgTyAprfT7nVUG-22" value="image" style="text;html=1;align=center;verticalAlign=middle;resizable=0;points=[];autosize=1;strokeColor=none;fillColor=default;fontStyle=1;labelBorderColor=none;labelBackgroundColor=none;fontColor=light-dark(#ff0000, #ededed);fontSize=13;" parent="jI9gdEdgTyAprfT7nVUG-13" vertex="1">
          <mxGeometry x="20" y="220" width="60" height="30" as="geometry" />
        </mxCell>
        <mxCell id="jI9gdEdgTyAprfT7nVUG-23" value="Array[]" style="text;html=1;align=center;verticalAlign=middle;resizable=0;points=[];autosize=1;strokeColor=none;fillColor=none;" parent="jI9gdEdgTyAprfT7nVUG-13" vertex="1">
          <mxGeometry x="85" y="220" width="60" height="30" as="geometry" />
        </mxCell>
        <mxCell id="jI9gdEdgTyAprfT7nVUG-24" value="name" style="text;html=1;align=center;verticalAlign=middle;resizable=0;points=[];autosize=1;strokeColor=none;fillColor=default;fontStyle=1;labelBorderColor=none;labelBackgroundColor=none;fontColor=light-dark(#ff0000, #ededed);fontSize=13;" parent="jI9gdEdgTyAprfT7nVUG-13" vertex="1">
          <mxGeometry x="20" y="70" width="60" height="30" as="geometry" />
        </mxCell>
        <mxCell id="jI9gdEdgTyAprfT7nVUG-25" value="String (required)" style="text;html=1;align=center;verticalAlign=middle;resizable=0;points=[];autosize=1;strokeColor=none;fillColor=none;" parent="jI9gdEdgTyAprfT7nVUG-13" vertex="1">
          <mxGeometry x="80" y="70" width="110" height="30" as="geometry" />
        </mxCell>
        <mxCell id="jI9gdEdgTyAprfT7nVUG-26" value="desc" style="text;html=1;align=center;verticalAlign=middle;resizable=0;points=[];autosize=1;strokeColor=none;fillColor=default;fontStyle=1;labelBorderColor=none;labelBackgroundColor=none;fontColor=light-dark(#ff0000, #ededed);fontSize=13;" parent="jI9gdEdgTyAprfT7nVUG-13" vertex="1">
          <mxGeometry x="20" y="100" width="50" height="30" as="geometry" />
        </mxCell>
        <mxCell id="jI9gdEdgTyAprfT7nVUG-27" value="String" style="text;html=1;align=center;verticalAlign=middle;resizable=0;points=[];autosize=1;strokeColor=none;fillColor=none;" parent="jI9gdEdgTyAprfT7nVUG-13" vertex="1">
          <mxGeometry x="85" y="100" width="50" height="30" as="geometry" />
        </mxCell>
        <mxCell id="jI9gdEdgTyAprfT7nVUG-30" value="importAt" style="text;html=1;align=center;verticalAlign=middle;resizable=0;points=[];autosize=1;strokeColor=none;fillColor=default;fontStyle=1;labelBorderColor=none;labelBackgroundColor=none;fontColor=light-dark(#ff0000, #ededed);fontSize=13;" parent="jI9gdEdgTyAprfT7nVUG-13" vertex="1">
          <mxGeometry x="25" y="313.5" width="70" height="30" as="geometry" />
        </mxCell>
        <mxCell id="jI9gdEdgTyAprfT7nVUG-31" value="timeStamp &amp;lt;default: Date.now&amp;gt;" style="text;html=1;align=center;verticalAlign=middle;resizable=0;points=[];autosize=1;strokeColor=none;fillColor=none;" parent="jI9gdEdgTyAprfT7nVUG-13" vertex="1">
          <mxGeometry x="100" y="314" width="190" height="30" as="geometry" />
        </mxCell>
        <mxCell id="jI9gdEdgTyAprfT7nVUG-32" value="exportAt" style="text;html=1;align=center;verticalAlign=middle;resizable=0;points=[];autosize=1;strokeColor=none;fillColor=default;fontStyle=1;labelBorderColor=none;labelBackgroundColor=none;fontColor=light-dark(#ff0000, #ededed);fontSize=13;" parent="jI9gdEdgTyAprfT7nVUG-13" vertex="1">
          <mxGeometry x="25" y="344" width="70" height="30" as="geometry" />
        </mxCell>
        <mxCell id="jI9gdEdgTyAprfT7nVUG-33" value="timeStamp &amp;lt;default: null&amp;gt;" style="text;html=1;align=center;verticalAlign=middle;resizable=0;points=[];autosize=1;strokeColor=none;fillColor=none;" parent="jI9gdEdgTyAprfT7nVUG-13" vertex="1">
          <mxGeometry x="100" y="344" width="160" height="30" as="geometry" />
        </mxCell>
        <mxCell id="jI9gdEdgTyAprfT7nVUG-34" value="_destroy" style="text;html=1;align=center;verticalAlign=middle;resizable=0;points=[];autosize=1;strokeColor=none;fillColor=default;fontStyle=1;labelBorderColor=none;labelBackgroundColor=none;fontColor=light-dark(#ff0000, #ededed);fontSize=13;" parent="jI9gdEdgTyAprfT7nVUG-13" vertex="1">
          <mxGeometry x="25" y="374" width="70" height="30" as="geometry" />
        </mxCell>
        <mxCell id="jI9gdEdgTyAprfT7nVUG-35" value="Boolean &amp;lt;default: false&amp;gt;" style="text;html=1;align=center;verticalAlign=middle;resizable=0;points=[];autosize=1;strokeColor=none;fillColor=none;" parent="jI9gdEdgTyAprfT7nVUG-13" vertex="1">
          <mxGeometry x="105" y="374" width="150" height="30" as="geometry" />
        </mxCell>
        <mxCell id="jI9gdEdgTyAprfT7nVUG-36" value="price" style="text;html=1;align=center;verticalAlign=middle;resizable=0;points=[];autosize=1;strokeColor=none;fillColor=default;fontStyle=1;labelBorderColor=none;labelBackgroundColor=none;fontColor=light-dark(#ff0000, #ededed);fontSize=13;" parent="jI9gdEdgTyAprfT7nVUG-13" vertex="1">
          <mxGeometry x="20" y="250" width="50" height="30" as="geometry" />
        </mxCell>
        <mxCell id="jI9gdEdgTyAprfT7nVUG-37" value="Number" style="text;html=1;align=center;verticalAlign=middle;resizable=0;points=[];autosize=1;strokeColor=none;fillColor=none;" parent="jI9gdEdgTyAprfT7nVUG-13" vertex="1">
          <mxGeometry x="80" y="250" width="70" height="30" as="geometry" />
        </mxCell>
        <mxCell id="jI9gdEdgTyAprfT7nVUG-38" value="stock" style="text;html=1;align=center;verticalAlign=middle;resizable=0;points=[];autosize=1;strokeColor=none;fillColor=default;fontStyle=1;labelBorderColor=none;labelBackgroundColor=none;fontColor=light-dark(#ff0000, #ededed);fontSize=13;" parent="jI9gdEdgTyAprfT7nVUG-13" vertex="1">
          <mxGeometry x="20" y="280" width="50" height="30" as="geometry" />
        </mxCell>
        <mxCell id="jI9gdEdgTyAprfT7nVUG-39" value="Number" style="text;html=1;align=center;verticalAlign=middle;resizable=0;points=[];autosize=1;strokeColor=none;fillColor=none;" parent="jI9gdEdgTyAprfT7nVUG-13" vertex="1">
          <mxGeometry x="85" y="280" width="70" height="30" as="geometry" />
        </mxCell>
        <mxCell id="UX02B7uwUahebvQv0DMJ-2" value="Order" style="swimlane;startSize=30;fillColor=#d5e8d4;strokeColor=#82b366;" parent="1" vertex="1">
          <mxGeometry x="-20" y="290" width="410" height="380" as="geometry" />
        </mxCell>
        <mxCell id="UX02B7uwUahebvQv0DMJ-3" value="_id" style="text;html=1;align=center;verticalAlign=middle;resizable=0;points=[];autosize=1;strokeColor=none;fillColor=default;fontStyle=1;labelBorderColor=none;labelBackgroundColor=none;fontColor=light-dark(#ff0000, #ededed);fontSize=13;" parent="UX02B7uwUahebvQv0DMJ-2" vertex="1">
          <mxGeometry x="20" y="40" width="40" height="30" as="geometry" />
        </mxCell>
        <mxCell id="UX02B7uwUahebvQv0DMJ-4" value="String (required)" style="text;html=1;align=center;verticalAlign=middle;resizable=0;points=[];autosize=1;strokeColor=none;fillColor=none;" parent="UX02B7uwUahebvQv0DMJ-2" vertex="1">
          <mxGeometry x="70" y="40" width="110" height="30" as="geometry" />
        </mxCell>
        <mxCell id="UX02B7uwUahebvQv0DMJ-5" value="customerId" style="text;html=1;align=center;verticalAlign=middle;resizable=0;points=[];autosize=1;strokeColor=none;fillColor=default;fontStyle=1;labelBorderColor=none;labelBackgroundColor=none;fontColor=light-dark(#ff0000, #ededed);fontSize=13;" parent="UX02B7uwUahebvQv0DMJ-2" vertex="1">
          <mxGeometry x="20" y="70" width="90" height="30" as="geometry" />
        </mxCell>
        <mxCell id="UX02B7uwUahebvQv0DMJ-6" value="unique, required" style="text;html=1;align=center;verticalAlign=middle;resizable=0;points=[];autosize=1;strokeColor=none;fillColor=none;" parent="UX02B7uwUahebvQv0DMJ-2" vertex="1">
          <mxGeometry x="110" y="70" width="110" height="30" as="geometry" />
        </mxCell>
        <mxCell id="UX02B7uwUahebvQv0DMJ-7" value="items" style="text;html=1;align=center;verticalAlign=middle;resizable=0;points=[];autosize=1;strokeColor=none;fillColor=default;fontStyle=1;labelBorderColor=none;labelBackgroundColor=none;fontColor=light-dark(#ff0000, #ededed);fontSize=13;" parent="UX02B7uwUahebvQv0DMJ-2" vertex="1">
          <mxGeometry x="20" y="100" width="50" height="30" as="geometry" />
        </mxCell>
        <mxCell id="UX02B7uwUahebvQv0DMJ-8" value="Array[]" style="text;html=1;align=center;verticalAlign=middle;resizable=0;points=[];autosize=1;strokeColor=none;fillColor=none;" parent="UX02B7uwUahebvQv0DMJ-2" vertex="1">
          <mxGeometry x="70" y="100" width="60" height="30" as="geometry" />
        </mxCell>
        <mxCell id="UX02B7uwUahebvQv0DMJ-9" value="productId" style="text;html=1;align=center;verticalAlign=middle;resizable=0;points=[];autosize=1;strokeColor=none;fillColor=default;fontStyle=1;labelBorderColor=none;labelBackgroundColor=none;fontColor=light-dark(#ff0000, #ededed);fontSize=13;" parent="UX02B7uwUahebvQv0DMJ-2" vertex="1">
          <mxGeometry x="60" y="130" width="80" height="30" as="geometry" />
        </mxCell>
        <mxCell id="UX02B7uwUahebvQv0DMJ-10" value="String (required)" style="text;html=1;align=center;verticalAlign=middle;resizable=0;points=[];autosize=1;strokeColor=none;fillColor=none;" parent="UX02B7uwUahebvQv0DMJ-2" vertex="1">
          <mxGeometry x="140" y="130" width="110" height="30" as="geometry" />
        </mxCell>
        <mxCell id="UX02B7uwUahebvQv0DMJ-11" value="quantity" style="text;html=1;align=center;verticalAlign=middle;resizable=0;points=[];autosize=1;strokeColor=none;fillColor=default;fontStyle=1;labelBorderColor=none;labelBackgroundColor=none;fontColor=light-dark(#ff0000, #ededed);fontSize=13;" parent="UX02B7uwUahebvQv0DMJ-2" vertex="1">
          <mxGeometry x="60" y="160" width="70" height="30" as="geometry" />
        </mxCell>
        <mxCell id="UX02B7uwUahebvQv0DMJ-12" value="Number &amp;lt;default: 1&amp;gt;" style="text;html=1;align=center;verticalAlign=middle;resizable=0;points=[];autosize=1;strokeColor=none;fillColor=none;" parent="UX02B7uwUahebvQv0DMJ-2" vertex="1">
          <mxGeometry x="140" y="160" width="130" height="30" as="geometry" />
        </mxCell>
        <mxCell id="UX02B7uwUahebvQv0DMJ-13" value="price" style="text;html=1;align=center;verticalAlign=middle;resizable=0;points=[];autosize=1;strokeColor=none;fillColor=default;fontStyle=1;labelBorderColor=none;labelBackgroundColor=none;fontColor=light-dark(#ff0000, #ededed);fontSize=13;" parent="UX02B7uwUahebvQv0DMJ-2" vertex="1">
          <mxGeometry x="60" y="190" width="50" height="30" as="geometry" />
        </mxCell>
        <mxCell id="UX02B7uwUahebvQv0DMJ-14" value="Boolean &amp;lt;default: false&amp;gt;" style="text;html=1;align=center;verticalAlign=middle;resizable=0;points=[];autosize=1;strokeColor=none;fillColor=none;" parent="UX02B7uwUahebvQv0DMJ-2" vertex="1">
          <mxGeometry x="110" y="190" width="150" height="30" as="geometry" />
        </mxCell>
        <mxCell id="UX02B7uwUahebvQv0DMJ-15" value="createdAt" style="text;html=1;align=center;verticalAlign=middle;resizable=0;points=[];autosize=1;strokeColor=none;fillColor=default;fontStyle=1;labelBorderColor=none;labelBackgroundColor=none;fontColor=light-dark(#ff0000, #ededed);fontSize=13;" parent="UX02B7uwUahebvQv0DMJ-2" vertex="1">
          <mxGeometry x="20" y="270" width="80" height="30" as="geometry" />
        </mxCell>
        <mxCell id="UX02B7uwUahebvQv0DMJ-16" value="timeStamp &amp;lt;default: Date.now&amp;gt;" style="text;html=1;align=center;verticalAlign=middle;resizable=0;points=[];autosize=1;strokeColor=none;fillColor=none;" parent="UX02B7uwUahebvQv0DMJ-2" vertex="1">
          <mxGeometry x="100" y="270" width="190" height="30" as="geometry" />
        </mxCell>
        <mxCell id="UX02B7uwUahebvQv0DMJ-17" value="status" style="text;html=1;align=center;verticalAlign=middle;resizable=0;points=[];autosize=1;strokeColor=none;fillColor=default;fontStyle=1;labelBorderColor=none;labelBackgroundColor=none;fontColor=light-dark(#ff0000, #ededed);fontSize=13;" parent="UX02B7uwUahebvQv0DMJ-2" vertex="1">
          <mxGeometry x="20" y="300" width="60" height="30" as="geometry" />
        </mxCell>
        <mxCell id="UX02B7uwUahebvQv0DMJ-18" value="String (Cart, Plending, Completed, Canceled)" style="text;html=1;align=center;verticalAlign=middle;resizable=0;points=[];autosize=1;strokeColor=none;fillColor=none;" parent="UX02B7uwUahebvQv0DMJ-2" vertex="1">
          <mxGeometry x="80" y="300" width="260" height="30" as="geometry" />
        </mxCell>
        <mxCell id="UX02B7uwUahebvQv0DMJ-19" value="totalPrice" style="text;html=1;align=center;verticalAlign=middle;resizable=0;points=[];autosize=1;strokeColor=none;fillColor=default;fontStyle=1;labelBorderColor=none;labelBackgroundColor=none;fontColor=light-dark(#ff0000, #ededed);fontSize=13;" parent="UX02B7uwUahebvQv0DMJ-2" vertex="1">
          <mxGeometry x="20" y="240" width="80" height="30" as="geometry" />
        </mxCell>
        <mxCell id="UX02B7uwUahebvQv0DMJ-20" value="Number" style="text;html=1;align=center;verticalAlign=middle;resizable=0;points=[];autosize=1;strokeColor=none;fillColor=none;" parent="UX02B7uwUahebvQv0DMJ-2" vertex="1">
          <mxGeometry x="100" y="240" width="70" height="30" as="geometry" />
        </mxCell>
        <mxCell id="9blomK1zOFIpoBAPm-I9-1" value="_destroy:" style="text;html=1;align=center;verticalAlign=middle;resizable=0;points=[];autosize=1;strokeColor=none;fillColor=default;fontStyle=1;labelBorderColor=none;labelBackgroundColor=none;fontColor=light-dark(#ff0000, #ededed);fontSize=13;" vertex="1" parent="UX02B7uwUahebvQv0DMJ-2">
          <mxGeometry x="20" y="330" width="80" height="30" as="geometry" />
        </mxCell>
        <mxCell id="9blomK1zOFIpoBAPm-I9-2" value="Boolean &amp;lt;default: false&amp;gt;" style="text;html=1;align=center;verticalAlign=middle;resizable=0;points=[];autosize=1;strokeColor=none;fillColor=none;" vertex="1" parent="UX02B7uwUahebvQv0DMJ-2">
          <mxGeometry x="100" y="330" width="150" height="30" as="geometry" />
        </mxCell>
        <mxCell id="UX02B7uwUahebvQv0DMJ-26" style="edgeStyle=orthogonalEdgeStyle;rounded=0;orthogonalLoop=1;jettySize=auto;html=1;entryX=0.01;entryY=0.753;entryDx=0;entryDy=0;entryPerimeter=0;" parent="1" source="UX02B7uwUahebvQv0DMJ-6" target="6G9M2cNqyrZpUoSZgNi6-39" edge="1">
          <mxGeometry relative="1" as="geometry">
            <Array as="points">
              <mxPoint x="520" y="375" />
              <mxPoint x="520" y="663" />
            </Array>
          </mxGeometry>
        </mxCell>
        <mxCell id="UX02B7uwUahebvQv0DMJ-27" style="edgeStyle=orthogonalEdgeStyle;rounded=0;orthogonalLoop=1;jettySize=auto;html=1;entryX=-0.068;entryY=0.593;entryDx=0;entryDy=0;entryPerimeter=0;" parent="1" source="UX02B7uwUahebvQv0DMJ-10" target="jI9gdEdgTyAprfT7nVUG-14" edge="1">
          <mxGeometry relative="1" as="geometry">
            <Array as="points">
              <mxPoint x="440" y="435" />
              <mxPoint x="440" y="138" />
            </Array>
          </mxGeometry>
        </mxCell>
      </root>
    </mxGraphModel>
  </diagram>
  <diagram id="-gd4bl0cIG_IXW318ylq" name="Trang-3">
    <mxGraphModel dx="1044" dy="631" grid="0" gridSize="10" guides="1" tooltips="1" connect="1" arrows="1" fold="1" page="0" pageScale="1" pageWidth="1169" pageHeight="827" math="0" shadow="0">
      <root>
        <mxCell id="0" />
        <mxCell id="1" parent="0" />
        <mxCell id="5FhTHJaJXCoP0YKVLGFU-12" style="edgeStyle=orthogonalEdgeStyle;rounded=0;orthogonalLoop=1;jettySize=auto;html=1;entryX=0;entryY=0.5;entryDx=0;entryDy=0;" edge="1" parent="1" source="5FhTHJaJXCoP0YKVLGFU-3" target="5FhTHJaJXCoP0YKVLGFU-5">
          <mxGeometry relative="1" as="geometry" />
        </mxCell>
        <mxCell id="5FhTHJaJXCoP0YKVLGFU-13" style="edgeStyle=orthogonalEdgeStyle;rounded=0;orthogonalLoop=1;jettySize=auto;html=1;entryX=0;entryY=0.5;entryDx=0;entryDy=0;" edge="1" parent="1" source="5FhTHJaJXCoP0YKVLGFU-3" target="5FhTHJaJXCoP0YKVLGFU-4">
          <mxGeometry relative="1" as="geometry" />
        </mxCell>
        <mxCell id="5FhTHJaJXCoP0YKVLGFU-14" style="edgeStyle=orthogonalEdgeStyle;rounded=0;orthogonalLoop=1;jettySize=auto;html=1;entryX=0;entryY=0.5;entryDx=0;entryDy=0;" edge="1" parent="1" source="5FhTHJaJXCoP0YKVLGFU-3" target="5FhTHJaJXCoP0YKVLGFU-6">
          <mxGeometry relative="1" as="geometry" />
        </mxCell>
        <mxCell id="5FhTHJaJXCoP0YKVLGFU-15" style="edgeStyle=orthogonalEdgeStyle;rounded=0;orthogonalLoop=1;jettySize=auto;html=1;" edge="1" parent="1" source="5FhTHJaJXCoP0YKVLGFU-3" target="5FhTHJaJXCoP0YKVLGFU-7">
          <mxGeometry relative="1" as="geometry" />
        </mxCell>
        <mxCell id="5FhTHJaJXCoP0YKVLGFU-16" style="edgeStyle=orthogonalEdgeStyle;rounded=0;orthogonalLoop=1;jettySize=auto;html=1;" edge="1" parent="1" source="5FhTHJaJXCoP0YKVLGFU-3" target="5FhTHJaJXCoP0YKVLGFU-8">
          <mxGeometry relative="1" as="geometry" />
        </mxCell>
        <mxCell id="5FhTHJaJXCoP0YKVLGFU-17" style="edgeStyle=orthogonalEdgeStyle;rounded=0;orthogonalLoop=1;jettySize=auto;html=1;entryX=0;entryY=0.5;entryDx=0;entryDy=0;" edge="1" parent="1" source="5FhTHJaJXCoP0YKVLGFU-3" target="5FhTHJaJXCoP0YKVLGFU-9">
          <mxGeometry relative="1" as="geometry" />
        </mxCell>
        <mxCell id="5FhTHJaJXCoP0YKVLGFU-18" style="edgeStyle=orthogonalEdgeStyle;rounded=0;orthogonalLoop=1;jettySize=auto;html=1;entryX=0;entryY=0.5;entryDx=0;entryDy=0;" edge="1" parent="1" source="5FhTHJaJXCoP0YKVLGFU-3" target="5FhTHJaJXCoP0YKVLGFU-10">
          <mxGeometry relative="1" as="geometry" />
        </mxCell>
        <mxCell id="5FhTHJaJXCoP0YKVLGFU-3" value="&lt;font style=&quot;font-size: 16px;&quot;&gt;Khách hàng&lt;/font&gt;" style="ellipse;whiteSpace=wrap;html=1;fillColor=#f8cecc;strokeColor=#b85450;" vertex="1" parent="1">
          <mxGeometry x="110" y="290" width="120" height="60" as="geometry" />
        </mxCell>
        <mxCell id="5FhTHJaJXCoP0YKVLGFU-4" value="&lt;font style=&quot;font-size: 16px;&quot;&gt;Xem sản phẩm&lt;/font&gt;" style="rounded=1;whiteSpace=wrap;html=1;fillColor=#bac8d3;strokeColor=#23445d;" vertex="1" parent="1">
          <mxGeometry x="340" y="80" width="150" height="40" as="geometry" />
        </mxCell>
        <mxCell id="5FhTHJaJXCoP0YKVLGFU-5" value="&lt;font style=&quot;font-size: 16px;&quot;&gt;Tìm kiếm, lọc sản phẩm&lt;/font&gt;" style="rounded=1;whiteSpace=wrap;html=1;fillColor=#bac8d3;strokeColor=#23445d;" vertex="1" parent="1">
          <mxGeometry x="340" y="140" width="190" height="40" as="geometry" />
        </mxCell>
        <mxCell id="5FhTHJaJXCoP0YKVLGFU-6" value="&lt;span style=&quot;font-size: 16px;&quot;&gt;Đăng kí, đăng nhập&lt;/span&gt;" style="rounded=1;whiteSpace=wrap;html=1;fillColor=#bac8d3;strokeColor=#23445d;" vertex="1" parent="1">
          <mxGeometry x="340" y="210" width="190" height="40" as="geometry" />
        </mxCell>
        <mxCell id="5FhTHJaJXCoP0YKVLGFU-7" value="&lt;span style=&quot;font-size: 16px;&quot;&gt;Thêm sản phẩm vào giỏ hàng&lt;/span&gt;" style="rounded=1;whiteSpace=wrap;html=1;fillColor=#bac8d3;strokeColor=#23445d;" vertex="1" parent="1">
          <mxGeometry x="340" y="280" width="250" height="40" as="geometry" />
        </mxCell>
        <mxCell id="5FhTHJaJXCoP0YKVLGFU-8" value="&lt;span style=&quot;font-size: 16px;&quot;&gt;Đặt hàng&lt;/span&gt;" style="rounded=1;whiteSpace=wrap;html=1;fillColor=#bac8d3;strokeColor=#23445d;" vertex="1" parent="1">
          <mxGeometry x="340" y="350" width="130" height="40" as="geometry" />
        </mxCell>
        <mxCell id="5FhTHJaJXCoP0YKVLGFU-9" value="&lt;span style=&quot;font-size: 16px;&quot;&gt;Thanh toán&lt;/span&gt;" style="rounded=1;whiteSpace=wrap;html=1;fillColor=#bac8d3;strokeColor=#23445d;" vertex="1" parent="1">
          <mxGeometry x="340" y="414" width="130" height="40" as="geometry" />
        </mxCell>
        <mxCell id="5FhTHJaJXCoP0YKVLGFU-10" value="&lt;span style=&quot;font-size: 16px;&quot;&gt;Quản lí đơn hàng, thông tin c nhân&lt;/span&gt;" style="rounded=1;whiteSpace=wrap;html=1;fillColor=#bac8d3;strokeColor=#23445d;" vertex="1" parent="1">
          <mxGeometry x="340" y="480" width="280" height="40" as="geometry" />
        </mxCell>
        <mxCell id="5FhTHJaJXCoP0YKVLGFU-22" style="edgeStyle=orthogonalEdgeStyle;rounded=0;orthogonalLoop=1;jettySize=auto;html=1;entryX=0;entryY=0.5;entryDx=0;entryDy=0;" edge="1" parent="1" source="5FhTHJaJXCoP0YKVLGFU-29" target="5FhTHJaJXCoP0YKVLGFU-31">
          <mxGeometry relative="1" as="geometry" />
        </mxCell>
        <mxCell id="5FhTHJaJXCoP0YKVLGFU-23" style="edgeStyle=orthogonalEdgeStyle;rounded=0;orthogonalLoop=1;jettySize=auto;html=1;entryX=0;entryY=0.5;entryDx=0;entryDy=0;" edge="1" parent="1" source="5FhTHJaJXCoP0YKVLGFU-29" target="5FhTHJaJXCoP0YKVLGFU-30">
          <mxGeometry relative="1" as="geometry" />
        </mxCell>
        <mxCell id="5FhTHJaJXCoP0YKVLGFU-24" style="edgeStyle=orthogonalEdgeStyle;rounded=0;orthogonalLoop=1;jettySize=auto;html=1;entryX=0;entryY=0.5;entryDx=0;entryDy=0;" edge="1" parent="1" source="5FhTHJaJXCoP0YKVLGFU-29" target="5FhTHJaJXCoP0YKVLGFU-32">
          <mxGeometry relative="1" as="geometry" />
        </mxCell>
        <mxCell id="5FhTHJaJXCoP0YKVLGFU-38" style="edgeStyle=orthogonalEdgeStyle;rounded=0;orthogonalLoop=1;jettySize=auto;html=1;entryX=0;entryY=0.5;entryDx=0;entryDy=0;" edge="1" parent="1" source="5FhTHJaJXCoP0YKVLGFU-29" target="5FhTHJaJXCoP0YKVLGFU-37">
          <mxGeometry relative="1" as="geometry" />
        </mxCell>
        <mxCell id="5FhTHJaJXCoP0YKVLGFU-29" value="&lt;font style=&quot;font-size: 16px;&quot;&gt;Quản trị viên&lt;/font&gt;" style="ellipse;whiteSpace=wrap;html=1;fillColor=#f8cecc;strokeColor=#b85450;" vertex="1" parent="1">
          <mxGeometry x="1222" y="314" width="120" height="60" as="geometry" />
        </mxCell>
        <mxCell id="5FhTHJaJXCoP0YKVLGFU-30" value="&lt;font style=&quot;font-size: 16px;&quot;&gt;Quản lý sản phẩm&lt;/font&gt;" style="rounded=1;whiteSpace=wrap;html=1;fillColor=#bac8d3;strokeColor=#23445d;" vertex="1" parent="1">
          <mxGeometry x="1461" y="226" width="166" height="40" as="geometry" />
        </mxCell>
        <mxCell id="5FhTHJaJXCoP0YKVLGFU-31" value="&lt;span style=&quot;font-size: 16px;&quot;&gt;Quản lý người dùng&lt;/span&gt;" style="rounded=1;whiteSpace=wrap;html=1;fillColor=#bac8d3;strokeColor=#23445d;" vertex="1" parent="1">
          <mxGeometry x="1461" y="300" width="190" height="40" as="geometry" />
        </mxCell>
        <mxCell id="5FhTHJaJXCoP0YKVLGFU-32" value="&lt;span style=&quot;font-size: 16px;&quot;&gt;Quản lý đơn hàng&lt;/span&gt;" style="rounded=1;whiteSpace=wrap;html=1;fillColor=#bac8d3;strokeColor=#23445d;" vertex="1" parent="1">
          <mxGeometry x="1461" y="363" width="190" height="40" as="geometry" />
        </mxCell>
        <mxCell id="5FhTHJaJXCoP0YKVLGFU-37" value="&lt;span style=&quot;font-size: 16px;&quot;&gt;Xem thống kê&lt;/span&gt;" style="rounded=1;whiteSpace=wrap;html=1;fillColor=#bac8d3;strokeColor=#23445d;" vertex="1" parent="1">
          <mxGeometry x="1461" y="435" width="190" height="40" as="geometry" />
        </mxCell>
        <mxCell id="5FhTHJaJXCoP0YKVLGFU-43" style="edgeStyle=orthogonalEdgeStyle;rounded=0;orthogonalLoop=1;jettySize=auto;html=1;" edge="1" parent="1" source="5FhTHJaJXCoP0YKVLGFU-40" target="5FhTHJaJXCoP0YKVLGFU-42">
          <mxGeometry relative="1" as="geometry">
            <Array as="points">
              <mxPoint x="543" y="977" />
              <mxPoint x="543" y="977" />
            </Array>
          </mxGeometry>
        </mxCell>
        <mxCell id="5FhTHJaJXCoP0YKVLGFU-55" style="edgeStyle=orthogonalEdgeStyle;rounded=0;orthogonalLoop=1;jettySize=auto;html=1;entryX=0.5;entryY=0;entryDx=0;entryDy=0;" edge="1" parent="1" source="5FhTHJaJXCoP0YKVLGFU-40" target="5FhTHJaJXCoP0YKVLGFU-51">
          <mxGeometry relative="1" as="geometry">
            <Array as="points">
              <mxPoint x="765" y="981" />
            </Array>
          </mxGeometry>
        </mxCell>
        <mxCell id="5FhTHJaJXCoP0YKVLGFU-40" value="&lt;font style=&quot;font-size: 16px;&quot;&gt;Khách hàng&lt;/font&gt;" style="ellipse;whiteSpace=wrap;html=1;fillColor=#f8cecc;strokeColor=#b85450;" vertex="1" parent="1">
          <mxGeometry x="579" y="951" width="120" height="60" as="geometry" />
        </mxCell>
        <mxCell id="5FhTHJaJXCoP0YKVLGFU-48" style="edgeStyle=orthogonalEdgeStyle;rounded=0;orthogonalLoop=1;jettySize=auto;html=1;entryX=1;entryY=0.5;entryDx=0;entryDy=0;" edge="1" parent="1" source="5FhTHJaJXCoP0YKVLGFU-42" target="5FhTHJaJXCoP0YKVLGFU-45">
          <mxGeometry relative="1" as="geometry" />
        </mxCell>
        <mxCell id="5FhTHJaJXCoP0YKVLGFU-49" style="edgeStyle=orthogonalEdgeStyle;rounded=0;orthogonalLoop=1;jettySize=auto;html=1;entryX=1;entryY=0.5;entryDx=0;entryDy=0;" edge="1" parent="1" source="5FhTHJaJXCoP0YKVLGFU-42" target="5FhTHJaJXCoP0YKVLGFU-46">
          <mxGeometry relative="1" as="geometry" />
        </mxCell>
        <mxCell id="5FhTHJaJXCoP0YKVLGFU-50" style="edgeStyle=orthogonalEdgeStyle;rounded=0;orthogonalLoop=1;jettySize=auto;html=1;entryX=1;entryY=0.5;entryDx=0;entryDy=0;" edge="1" parent="1" source="5FhTHJaJXCoP0YKVLGFU-42" target="5FhTHJaJXCoP0YKVLGFU-47">
          <mxGeometry relative="1" as="geometry">
            <Array as="points">
              <mxPoint x="427" y="1077" />
              <mxPoint x="427" y="1162" />
            </Array>
          </mxGeometry>
        </mxCell>
        <mxCell id="5FhTHJaJXCoP0YKVLGFU-42" value="&lt;span style=&quot;font-size: 16px;&quot;&gt;Đặt hàng&lt;/span&gt;" style="rounded=1;whiteSpace=wrap;html=1;fillColor=#bac8d3;strokeColor=#23445d;" vertex="1" parent="1">
          <mxGeometry x="461" y="1057" width="150" height="40" as="geometry" />
        </mxCell>
        <mxCell id="5FhTHJaJXCoP0YKVLGFU-45" value="&lt;span style=&quot;font-size: 16px;&quot;&gt;Chọn sản phẩm&lt;/span&gt;" style="rounded=1;whiteSpace=wrap;html=1;fillColor=#bac8d3;strokeColor=#23445d;" vertex="1" parent="1">
          <mxGeometry x="245" y="972" width="150" height="40" as="geometry" />
        </mxCell>
        <mxCell id="5FhTHJaJXCoP0YKVLGFU-46" value="&lt;span style=&quot;font-size: 16px;&quot;&gt;Chọn màu sắc&lt;/span&gt;" style="rounded=1;whiteSpace=wrap;html=1;fillColor=#bac8d3;strokeColor=#23445d;" vertex="1" parent="1">
          <mxGeometry x="242" y="1057" width="150" height="40" as="geometry" />
        </mxCell>
        <mxCell id="5FhTHJaJXCoP0YKVLGFU-47" value="&lt;span style=&quot;font-size: 16px;&quot;&gt;Chọn size&lt;/span&gt;" style="rounded=1;whiteSpace=wrap;html=1;fillColor=#bac8d3;strokeColor=#23445d;" vertex="1" parent="1">
          <mxGeometry x="242" y="1142" width="150" height="40" as="geometry" />
        </mxCell>
        <mxCell id="5FhTHJaJXCoP0YKVLGFU-57" style="edgeStyle=orthogonalEdgeStyle;rounded=0;orthogonalLoop=1;jettySize=auto;html=1;entryX=0;entryY=0.5;entryDx=0;entryDy=0;" edge="1" parent="1" source="5FhTHJaJXCoP0YKVLGFU-51" target="5FhTHJaJXCoP0YKVLGFU-53">
          <mxGeometry relative="1" as="geometry" />
        </mxCell>
        <mxCell id="5FhTHJaJXCoP0YKVLGFU-60" style="edgeStyle=orthogonalEdgeStyle;rounded=0;orthogonalLoop=1;jettySize=auto;html=1;" edge="1" parent="1" source="5FhTHJaJXCoP0YKVLGFU-51" target="5FhTHJaJXCoP0YKVLGFU-54">
          <mxGeometry relative="1" as="geometry" />
        </mxCell>
        <mxCell id="5FhTHJaJXCoP0YKVLGFU-51" value="&lt;span style=&quot;font-size: 16px;&quot;&gt;Thanh toán&lt;/span&gt;" style="rounded=1;whiteSpace=wrap;html=1;fillColor=#bac8d3;strokeColor=#23445d;" vertex="1" parent="1">
          <mxGeometry x="690" y="1056" width="150" height="40" as="geometry" />
        </mxCell>
        <mxCell id="5FhTHJaJXCoP0YKVLGFU-53" value="&lt;span style=&quot;font-size: 16px;&quot;&gt;Nhập thông tin&lt;/span&gt;" style="rounded=1;whiteSpace=wrap;html=1;fillColor=#bac8d3;strokeColor=#23445d;" vertex="1" parent="1">
          <mxGeometry x="907" y="961" width="150" height="40" as="geometry" />
        </mxCell>
        <mxCell id="5FhTHJaJXCoP0YKVLGFU-54" value="&lt;span style=&quot;font-size: 16px;&quot;&gt;Chọn phương thức thanh toán&lt;/span&gt;" style="rounded=1;whiteSpace=wrap;html=1;fillColor=#bac8d3;strokeColor=#23445d;" vertex="1" parent="1">
          <mxGeometry x="907" y="1037" width="169" height="66" as="geometry" />
        </mxCell>
        <mxCell id="5FhTHJaJXCoP0YKVLGFU-56" value="&lt;span style=&quot;font-size: 16px;&quot;&gt;Xác nhận thanh toán&lt;/span&gt;" style="rounded=1;whiteSpace=wrap;html=1;fillColor=#bac8d3;strokeColor=#23445d;" vertex="1" parent="1">
          <mxGeometry x="907" y="1135" width="194" height="48" as="geometry" />
        </mxCell>
        <mxCell id="5FhTHJaJXCoP0YKVLGFU-59" style="edgeStyle=orthogonalEdgeStyle;rounded=0;orthogonalLoop=1;jettySize=auto;html=1;entryX=0.002;entryY=0.623;entryDx=0;entryDy=0;entryPerimeter=0;" edge="1" parent="1" source="5FhTHJaJXCoP0YKVLGFU-51" target="5FhTHJaJXCoP0YKVLGFU-56">
          <mxGeometry relative="1" as="geometry" />
        </mxCell>
        <mxCell id="5FhTHJaJXCoP0YKVLGFU-79" style="edgeStyle=orthogonalEdgeStyle;rounded=0;orthogonalLoop=1;jettySize=auto;html=1;entryX=1;entryY=0.5;entryDx=0;entryDy=0;" edge="1" parent="1" source="5FhTHJaJXCoP0YKVLGFU-63" target="5FhTHJaJXCoP0YKVLGFU-67">
          <mxGeometry relative="1" as="geometry" />
        </mxCell>
        <mxCell id="5FhTHJaJXCoP0YKVLGFU-80" style="edgeStyle=orthogonalEdgeStyle;rounded=0;orthogonalLoop=1;jettySize=auto;html=1;" edge="1" parent="1" source="5FhTHJaJXCoP0YKVLGFU-63" target="5FhTHJaJXCoP0YKVLGFU-73">
          <mxGeometry relative="1" as="geometry" />
        </mxCell>
        <mxCell id="5FhTHJaJXCoP0YKVLGFU-81" style="edgeStyle=orthogonalEdgeStyle;rounded=0;orthogonalLoop=1;jettySize=auto;html=1;" edge="1" parent="1" source="5FhTHJaJXCoP0YKVLGFU-63" target="5FhTHJaJXCoP0YKVLGFU-78">
          <mxGeometry relative="1" as="geometry">
            <Array as="points">
              <mxPoint x="1681" y="1242" />
            </Array>
          </mxGeometry>
        </mxCell>
        <mxCell id="5FhTHJaJXCoP0YKVLGFU-63" value="&lt;font style=&quot;font-size: 21px;&quot;&gt;Quản trị viên&lt;/font&gt;" style="ellipse;whiteSpace=wrap;html=1;fillColor=#f8cecc;strokeColor=#b85450;" vertex="1" parent="1">
          <mxGeometry x="1575" y="1077" width="170" height="97" as="geometry" />
        </mxCell>
        <mxCell id="5FhTHJaJXCoP0YKVLGFU-84" style="edgeStyle=orthogonalEdgeStyle;rounded=0;orthogonalLoop=1;jettySize=auto;html=1;" edge="1" parent="1" source="5FhTHJaJXCoP0YKVLGFU-67">
          <mxGeometry relative="1" as="geometry">
            <mxPoint x="1368.5000457763672" y="964.2499694824219" as="targetPoint" />
          </mxGeometry>
        </mxCell>
        <mxCell id="5FhTHJaJXCoP0YKVLGFU-67" value="&lt;span style=&quot;font-size: 16px;&quot;&gt;Quản lí sản phẩm&lt;/span&gt;" style="rounded=1;whiteSpace=wrap;html=1;fillColor=#bac8d3;strokeColor=#23445d;" vertex="1" parent="1">
          <mxGeometry x="1403" y="1029" width="150" height="40" as="geometry" />
        </mxCell>
        <mxCell id="5FhTHJaJXCoP0YKVLGFU-88" style="edgeStyle=orthogonalEdgeStyle;rounded=0;orthogonalLoop=1;jettySize=auto;html=1;entryX=0;entryY=0.5;entryDx=0;entryDy=0;" edge="1" parent="1" source="5FhTHJaJXCoP0YKVLGFU-73" target="5FhTHJaJXCoP0YKVLGFU-85">
          <mxGeometry relative="1" as="geometry" />
        </mxCell>
        <mxCell id="5FhTHJaJXCoP0YKVLGFU-91" style="edgeStyle=orthogonalEdgeStyle;rounded=0;orthogonalLoop=1;jettySize=auto;html=1;entryX=0;entryY=0.5;entryDx=0;entryDy=0;" edge="1" parent="1" source="5FhTHJaJXCoP0YKVLGFU-73" target="5FhTHJaJXCoP0YKVLGFU-90">
          <mxGeometry relative="1" as="geometry" />
        </mxCell>
        <mxCell id="5FhTHJaJXCoP0YKVLGFU-92" style="edgeStyle=orthogonalEdgeStyle;rounded=0;orthogonalLoop=1;jettySize=auto;html=1;" edge="1" parent="1" source="5FhTHJaJXCoP0YKVLGFU-73" target="5FhTHJaJXCoP0YKVLGFU-89">
          <mxGeometry relative="1" as="geometry" />
        </mxCell>
        <mxCell id="5FhTHJaJXCoP0YKVLGFU-73" value="&lt;span style=&quot;font-size: 16px;&quot;&gt;Quản lí khách hàng&lt;/span&gt;" style="rounded=1;whiteSpace=wrap;html=1;fillColor=#bac8d3;strokeColor=#23445d;" vertex="1" parent="1">
          <mxGeometry x="1836" y="1105.5" width="150" height="40" as="geometry" />
        </mxCell>
        <mxCell id="5FhTHJaJXCoP0YKVLGFU-95" style="edgeStyle=orthogonalEdgeStyle;rounded=0;orthogonalLoop=1;jettySize=auto;html=1;entryX=1;entryY=0.5;entryDx=0;entryDy=0;" edge="1" parent="1" source="5FhTHJaJXCoP0YKVLGFU-78" target="5FhTHJaJXCoP0YKVLGFU-93">
          <mxGeometry relative="1" as="geometry">
            <Array as="points">
              <mxPoint x="1502" y="1201" />
            </Array>
          </mxGeometry>
        </mxCell>
        <mxCell id="5FhTHJaJXCoP0YKVLGFU-96" style="edgeStyle=orthogonalEdgeStyle;rounded=0;orthogonalLoop=1;jettySize=auto;html=1;entryX=1;entryY=0.5;entryDx=0;entryDy=0;" edge="1" parent="1" source="5FhTHJaJXCoP0YKVLGFU-78" target="5FhTHJaJXCoP0YKVLGFU-94">
          <mxGeometry relative="1" as="geometry" />
        </mxCell>
        <mxCell id="5FhTHJaJXCoP0YKVLGFU-78" value="&lt;span style=&quot;font-size: 16px;&quot;&gt;Quản lí đơn hàng&lt;/span&gt;" style="rounded=1;whiteSpace=wrap;html=1;fillColor=#bac8d3;strokeColor=#23445d;" vertex="1" parent="1">
          <mxGeometry x="1470" y="1228" width="150" height="40" as="geometry" />
        </mxCell>
        <mxCell id="5FhTHJaJXCoP0YKVLGFU-82" value="&lt;span style=&quot;font-size: 16px;&quot;&gt;Thêm, sửa, xoá, sản phẩm&lt;/span&gt;" style="rounded=1;whiteSpace=wrap;html=1;fillColor=#bac8d3;strokeColor=#23445d;" vertex="1" parent="1">
          <mxGeometry x="1284" y="881" width="174" height="70" as="geometry" />
        </mxCell>
        <mxCell id="5FhTHJaJXCoP0YKVLGFU-85" value="&lt;span style=&quot;font-size: 16px;&quot;&gt;Cập nhập quyền hạn&lt;/span&gt;" style="rounded=1;whiteSpace=wrap;html=1;fillColor=#bac8d3;strokeColor=#23445d;" vertex="1" parent="1">
          <mxGeometry x="1958" y="994" width="140" height="70" as="geometry" />
        </mxCell>
        <mxCell id="5FhTHJaJXCoP0YKVLGFU-89" value="&lt;span style=&quot;font-size: 16px;&quot;&gt;Xoá khách hàng&lt;/span&gt;" style="rounded=1;whiteSpace=wrap;html=1;fillColor=#bac8d3;strokeColor=#23445d;" vertex="1" parent="1">
          <mxGeometry x="1841" y="1220.5" width="140" height="55" as="geometry" />
        </mxCell>
        <mxCell id="5FhTHJaJXCoP0YKVLGFU-90" value="&lt;span style=&quot;font-size: 16px;&quot;&gt;Khoá khách hàng&lt;/span&gt;" style="rounded=1;whiteSpace=wrap;html=1;fillColor=#bac8d3;strokeColor=#23445d;" vertex="1" parent="1">
          <mxGeometry x="2056" y="1101" width="170" height="49" as="geometry" />
        </mxCell>
        <mxCell id="5FhTHJaJXCoP0YKVLGFU-93" value="&lt;span style=&quot;font-size: 16px;&quot;&gt;Cập nhật trạng thái đơn hàng&lt;/span&gt;" style="rounded=1;whiteSpace=wrap;html=1;fillColor=#bac8d3;strokeColor=#23445d;" vertex="1" parent="1">
          <mxGeometry x="1255" y="1166" width="168" height="70" as="geometry" />
        </mxCell>
        <mxCell id="5FhTHJaJXCoP0YKVLGFU-94" value="&lt;span style=&quot;font-size: 16px;&quot;&gt;Xoá đơn hàng&lt;/span&gt;" style="rounded=1;whiteSpace=wrap;html=1;fillColor=#bac8d3;strokeColor=#23445d;" vertex="1" parent="1">
          <mxGeometry x="1311" y="1314" width="168" height="45" as="geometry" />
        </mxCell>
        <mxCell id="5FhTHJaJXCoP0YKVLGFU-120" style="edgeStyle=orthogonalEdgeStyle;rounded=0;orthogonalLoop=1;jettySize=auto;html=1;entryX=0.5;entryY=0;entryDx=0;entryDy=0;" edge="1" parent="1" source="5FhTHJaJXCoP0YKVLGFU-102" target="5FhTHJaJXCoP0YKVLGFU-118">
          <mxGeometry relative="1" as="geometry" />
        </mxCell>
        <mxCell id="5FhTHJaJXCoP0YKVLGFU-121" style="edgeStyle=orthogonalEdgeStyle;rounded=0;orthogonalLoop=1;jettySize=auto;html=1;entryX=0.5;entryY=0;entryDx=0;entryDy=0;" edge="1" parent="1" source="5FhTHJaJXCoP0YKVLGFU-102" target="5FhTHJaJXCoP0YKVLGFU-119">
          <mxGeometry relative="1" as="geometry" />
        </mxCell>
        <mxCell id="5FhTHJaJXCoP0YKVLGFU-102" value="&lt;font style=&quot;font-size: 30px;&quot;&gt;Nice store&lt;/font&gt;" style="ellipse;whiteSpace=wrap;html=1;fillColor=#f8cecc;strokeColor=#b85450;" vertex="1" parent="1">
          <mxGeometry x="3315" y="126" width="255" height="132" as="geometry" />
        </mxCell>
        <mxCell id="5FhTHJaJXCoP0YKVLGFU-124" style="edgeStyle=orthogonalEdgeStyle;rounded=0;orthogonalLoop=1;jettySize=auto;html=1;" edge="1" parent="1" source="5FhTHJaJXCoP0YKVLGFU-118" target="5FhTHJaJXCoP0YKVLGFU-122">
          <mxGeometry relative="1" as="geometry" />
        </mxCell>
        <mxCell id="5FhTHJaJXCoP0YKVLGFU-118" value="&lt;font style=&quot;font-size: 21px;&quot;&gt;Khách hàng&lt;/font&gt;" style="ellipse;whiteSpace=wrap;html=1;fillColor=#f8cecc;strokeColor=#b85450;" vertex="1" parent="1">
          <mxGeometry x="2999" y="320" width="170" height="97" as="geometry" />
        </mxCell>
        <mxCell id="5FhTHJaJXCoP0YKVLGFU-158" style="edgeStyle=orthogonalEdgeStyle;rounded=0;orthogonalLoop=1;jettySize=auto;html=1;" edge="1" parent="1" source="5FhTHJaJXCoP0YKVLGFU-119" target="5FhTHJaJXCoP0YKVLGFU-157">
          <mxGeometry relative="1" as="geometry" />
        </mxCell>
        <mxCell id="5FhTHJaJXCoP0YKVLGFU-160" style="edgeStyle=orthogonalEdgeStyle;rounded=0;orthogonalLoop=1;jettySize=auto;html=1;" edge="1" parent="1" source="5FhTHJaJXCoP0YKVLGFU-119" target="5FhTHJaJXCoP0YKVLGFU-159">
          <mxGeometry relative="1" as="geometry" />
        </mxCell>
        <mxCell id="5FhTHJaJXCoP0YKVLGFU-166" style="edgeStyle=orthogonalEdgeStyle;rounded=0;orthogonalLoop=1;jettySize=auto;html=1;entryX=0.5;entryY=0;entryDx=0;entryDy=0;" edge="1" parent="1" source="5FhTHJaJXCoP0YKVLGFU-119" target="5FhTHJaJXCoP0YKVLGFU-165">
          <mxGeometry relative="1" as="geometry">
            <Array as="points">
              <mxPoint x="4003" y="375" />
            </Array>
          </mxGeometry>
        </mxCell>
        <mxCell id="5FhTHJaJXCoP0YKVLGFU-174" style="edgeStyle=orthogonalEdgeStyle;rounded=0;orthogonalLoop=1;jettySize=auto;html=1;" edge="1" parent="1" source="5FhTHJaJXCoP0YKVLGFU-119" target="5FhTHJaJXCoP0YKVLGFU-173">
          <mxGeometry relative="1" as="geometry" />
        </mxCell>
        <mxCell id="5FhTHJaJXCoP0YKVLGFU-119" value="&lt;font style=&quot;font-size: 21px;&quot;&gt;Quản trị viên&lt;/font&gt;" style="ellipse;whiteSpace=wrap;html=1;fillColor=#f8cecc;strokeColor=#b85450;" vertex="1" parent="1">
          <mxGeometry x="3770" y="326" width="170" height="97" as="geometry" />
        </mxCell>
        <mxCell id="5FhTHJaJXCoP0YKVLGFU-126" style="edgeStyle=orthogonalEdgeStyle;rounded=0;orthogonalLoop=1;jettySize=auto;html=1;" edge="1" parent="1" source="5FhTHJaJXCoP0YKVLGFU-122" target="5FhTHJaJXCoP0YKVLGFU-125">
          <mxGeometry relative="1" as="geometry" />
        </mxCell>
        <mxCell id="5FhTHJaJXCoP0YKVLGFU-122" value="&lt;span style=&quot;font-size: 16px;&quot;&gt;Truy nhập trang chủ&lt;/span&gt;" style="rounded=1;whiteSpace=wrap;html=1;fillColor=#bac8d3;strokeColor=#23445d;" vertex="1" parent="1">
          <mxGeometry x="2994" y="458" width="180" height="45" as="geometry" />
        </mxCell>
        <mxCell id="5FhTHJaJXCoP0YKVLGFU-132" style="edgeStyle=orthogonalEdgeStyle;rounded=0;orthogonalLoop=1;jettySize=auto;html=1;entryX=1;entryY=0.5;entryDx=0;entryDy=0;" edge="1" parent="1" source="5FhTHJaJXCoP0YKVLGFU-125" target="5FhTHJaJXCoP0YKVLGFU-129">
          <mxGeometry relative="1" as="geometry" />
        </mxCell>
        <mxCell id="5FhTHJaJXCoP0YKVLGFU-133" style="edgeStyle=orthogonalEdgeStyle;rounded=0;orthogonalLoop=1;jettySize=auto;html=1;" edge="1" parent="1" source="5FhTHJaJXCoP0YKVLGFU-125" target="5FhTHJaJXCoP0YKVLGFU-130">
          <mxGeometry relative="1" as="geometry" />
        </mxCell>
        <mxCell id="5FhTHJaJXCoP0YKVLGFU-134" style="edgeStyle=orthogonalEdgeStyle;rounded=0;orthogonalLoop=1;jettySize=auto;html=1;entryX=1;entryY=0.5;entryDx=0;entryDy=0;" edge="1" parent="1" source="5FhTHJaJXCoP0YKVLGFU-125" target="5FhTHJaJXCoP0YKVLGFU-131">
          <mxGeometry relative="1" as="geometry" />
        </mxCell>
        <mxCell id="5FhTHJaJXCoP0YKVLGFU-141" style="edgeStyle=orthogonalEdgeStyle;rounded=0;orthogonalLoop=1;jettySize=auto;html=1;" edge="1" parent="1" source="5FhTHJaJXCoP0YKVLGFU-125" target="5FhTHJaJXCoP0YKVLGFU-140">
          <mxGeometry relative="1" as="geometry" />
        </mxCell>
        <mxCell id="5FhTHJaJXCoP0YKVLGFU-125" value="&lt;span style=&quot;font-size: 16px;&quot;&gt;Xem sản phẩm&lt;/span&gt;" style="rounded=1;whiteSpace=wrap;html=1;fillColor=#bac8d3;strokeColor=#23445d;" vertex="1" parent="1">
          <mxGeometry x="2994" y="534" width="180" height="45" as="geometry" />
        </mxCell>
        <mxCell id="5FhTHJaJXCoP0YKVLGFU-136" style="edgeStyle=orthogonalEdgeStyle;rounded=0;orthogonalLoop=1;jettySize=auto;html=1;entryX=0;entryY=0.5;entryDx=0;entryDy=0;" edge="1" parent="1" source="5FhTHJaJXCoP0YKVLGFU-127" target="5FhTHJaJXCoP0YKVLGFU-135">
          <mxGeometry relative="1" as="geometry" />
        </mxCell>
        <mxCell id="5FhTHJaJXCoP0YKVLGFU-138" style="edgeStyle=orthogonalEdgeStyle;rounded=0;orthogonalLoop=1;jettySize=auto;html=1;" edge="1" parent="1" source="5FhTHJaJXCoP0YKVLGFU-127" target="5FhTHJaJXCoP0YKVLGFU-137">
          <mxGeometry relative="1" as="geometry" />
        </mxCell>
        <mxCell id="5FhTHJaJXCoP0YKVLGFU-143" style="edgeStyle=orthogonalEdgeStyle;rounded=0;orthogonalLoop=1;jettySize=auto;html=1;" edge="1" parent="1" source="5FhTHJaJXCoP0YKVLGFU-127" target="5FhTHJaJXCoP0YKVLGFU-139">
          <mxGeometry relative="1" as="geometry" />
        </mxCell>
        <mxCell id="5FhTHJaJXCoP0YKVLGFU-127" value="&lt;span style=&quot;font-size: 16px;&quot;&gt;Thêm vào giỏ hàng&lt;/span&gt;" style="rounded=1;whiteSpace=wrap;html=1;fillColor=#bac8d3;strokeColor=#23445d;" vertex="1" parent="1">
          <mxGeometry x="2994" y="704" width="180" height="45" as="geometry" />
        </mxCell>
        <mxCell id="5FhTHJaJXCoP0YKVLGFU-129" value="&lt;span style=&quot;font-size: 16px;&quot;&gt;Chọn sản phẩm&lt;/span&gt;" style="rounded=1;whiteSpace=wrap;html=1;fillColor=#bac8d3;strokeColor=#23445d;" vertex="1" parent="1">
          <mxGeometry x="2726" y="413" width="180" height="45" as="geometry" />
        </mxCell>
        <mxCell id="5FhTHJaJXCoP0YKVLGFU-130" value="&lt;span style=&quot;font-size: 16px;&quot;&gt;Lựa chọn màu&lt;/span&gt;" style="rounded=1;whiteSpace=wrap;html=1;fillColor=#bac8d3;strokeColor=#23445d;" vertex="1" parent="1">
          <mxGeometry x="2726" y="506" width="180" height="45" as="geometry" />
        </mxCell>
        <mxCell id="5FhTHJaJXCoP0YKVLGFU-131" value="&lt;span style=&quot;font-size: 16px;&quot;&gt;Lựa chọn size&lt;/span&gt;" style="rounded=1;whiteSpace=wrap;html=1;fillColor=#bac8d3;strokeColor=#23445d;" vertex="1" parent="1">
          <mxGeometry x="2728" y="591" width="180" height="45" as="geometry" />
        </mxCell>
        <mxCell id="5FhTHJaJXCoP0YKVLGFU-135" value="&lt;span style=&quot;font-size: 16px;&quot;&gt;Tăng / giảm số lượng cần mua&lt;/span&gt;" style="rounded=1;whiteSpace=wrap;html=1;fillColor=#bac8d3;strokeColor=#23445d;" vertex="1" parent="1">
          <mxGeometry x="3248" y="640" width="180" height="64" as="geometry" />
        </mxCell>
        <mxCell id="5FhTHJaJXCoP0YKVLGFU-137" value="&lt;span style=&quot;font-size: 16px;&quot;&gt;Xoá sản phẩm trong giỏ hàng&lt;/span&gt;" style="rounded=1;whiteSpace=wrap;html=1;fillColor=#bac8d3;strokeColor=#23445d;" vertex="1" parent="1">
          <mxGeometry x="3253" y="736" width="201" height="64" as="geometry" />
        </mxCell>
        <mxCell id="5FhTHJaJXCoP0YKVLGFU-146" style="edgeStyle=orthogonalEdgeStyle;rounded=0;orthogonalLoop=1;jettySize=auto;html=1;entryX=1;entryY=0.5;entryDx=0;entryDy=0;" edge="1" parent="1" source="5FhTHJaJXCoP0YKVLGFU-139" target="5FhTHJaJXCoP0YKVLGFU-144">
          <mxGeometry relative="1" as="geometry" />
        </mxCell>
        <mxCell id="5FhTHJaJXCoP0YKVLGFU-147" style="edgeStyle=orthogonalEdgeStyle;rounded=0;orthogonalLoop=1;jettySize=auto;html=1;" edge="1" parent="1" source="5FhTHJaJXCoP0YKVLGFU-139" target="5FhTHJaJXCoP0YKVLGFU-145">
          <mxGeometry relative="1" as="geometry">
            <Array as="points">
              <mxPoint x="2965" y="829" />
              <mxPoint x="2965" y="875" />
            </Array>
          </mxGeometry>
        </mxCell>
        <mxCell id="5FhTHJaJXCoP0YKVLGFU-149" style="edgeStyle=orthogonalEdgeStyle;rounded=0;orthogonalLoop=1;jettySize=auto;html=1;" edge="1" parent="1" source="5FhTHJaJXCoP0YKVLGFU-139" target="5FhTHJaJXCoP0YKVLGFU-148">
          <mxGeometry relative="1" as="geometry" />
        </mxCell>
        <mxCell id="5FhTHJaJXCoP0YKVLGFU-139" value="&lt;span style=&quot;font-size: 16px;&quot;&gt;Thanh toán&lt;/span&gt;" style="rounded=1;whiteSpace=wrap;html=1;fillColor=#bac8d3;strokeColor=#23445d;" vertex="1" parent="1">
          <mxGeometry x="2994" y="806" width="180" height="45" as="geometry" />
        </mxCell>
        <mxCell id="5FhTHJaJXCoP0YKVLGFU-142" style="edgeStyle=orthogonalEdgeStyle;rounded=0;orthogonalLoop=1;jettySize=auto;html=1;" edge="1" parent="1" source="5FhTHJaJXCoP0YKVLGFU-140" target="5FhTHJaJXCoP0YKVLGFU-127">
          <mxGeometry relative="1" as="geometry" />
        </mxCell>
        <mxCell id="5FhTHJaJXCoP0YKVLGFU-140" value="&lt;span style=&quot;font-size: 16px;&quot;&gt;Đăng kí / Đăng nhập&lt;/span&gt;" style="rounded=1;whiteSpace=wrap;html=1;fillColor=#bac8d3;strokeColor=#23445d;" vertex="1" parent="1">
          <mxGeometry x="2994" y="616" width="180" height="45" as="geometry" />
        </mxCell>
        <mxCell id="5FhTHJaJXCoP0YKVLGFU-144" value="&lt;span style=&quot;font-size: 16px;&quot;&gt;Nhập thông tin&amp;nbsp;&lt;/span&gt;" style="rounded=1;whiteSpace=wrap;html=1;fillColor=#bac8d3;strokeColor=#23445d;" vertex="1" parent="1">
          <mxGeometry x="2754" y="761" width="180" height="45" as="geometry" />
        </mxCell>
        <mxCell id="5FhTHJaJXCoP0YKVLGFU-145" value="&lt;span style=&quot;font-size: 16px;&quot;&gt;Chọn phương thức thanh toán&lt;/span&gt;" style="rounded=1;whiteSpace=wrap;html=1;fillColor=#bac8d3;strokeColor=#23445d;" vertex="1" parent="1">
          <mxGeometry x="2754" y="857" width="180" height="45" as="geometry" />
        </mxCell>
        <mxCell id="5FhTHJaJXCoP0YKVLGFU-152" style="edgeStyle=orthogonalEdgeStyle;rounded=0;orthogonalLoop=1;jettySize=auto;html=1;entryX=0;entryY=0.5;entryDx=0;entryDy=0;" edge="1" parent="1" source="5FhTHJaJXCoP0YKVLGFU-148" target="5FhTHJaJXCoP0YKVLGFU-151">
          <mxGeometry relative="1" as="geometry" />
        </mxCell>
        <mxCell id="5FhTHJaJXCoP0YKVLGFU-148" value="&lt;span style=&quot;font-size: 16px;&quot;&gt;Quản lí đơn hàng và tài khoản cá nhân&lt;/span&gt;" style="rounded=1;whiteSpace=wrap;html=1;fillColor=#bac8d3;strokeColor=#23445d;" vertex="1" parent="1">
          <mxGeometry x="2985" y="911" width="198" height="68" as="geometry" />
        </mxCell>
        <mxCell id="5FhTHJaJXCoP0YKVLGFU-151" value="&lt;span style=&quot;font-size: 16px;&quot;&gt;Sửa thông tin cá nhân&lt;/span&gt;" style="rounded=1;whiteSpace=wrap;html=1;fillColor=#bac8d3;strokeColor=#23445d;" vertex="1" parent="1">
          <mxGeometry x="3253" y="911" width="139" height="68" as="geometry" />
        </mxCell>
        <mxCell id="5FhTHJaJXCoP0YKVLGFU-157" value="&lt;span style=&quot;font-size: 16px;&quot;&gt;Xem thống kê&lt;/span&gt;" style="rounded=1;whiteSpace=wrap;html=1;fillColor=#bac8d3;strokeColor=#23445d;" vertex="1" parent="1">
          <mxGeometry x="4004" y="174" width="180" height="45" as="geometry" />
        </mxCell>
        <mxCell id="5FhTHJaJXCoP0YKVLGFU-162" style="edgeStyle=orthogonalEdgeStyle;rounded=0;orthogonalLoop=1;jettySize=auto;html=1;" edge="1" parent="1" source="5FhTHJaJXCoP0YKVLGFU-159" target="5FhTHJaJXCoP0YKVLGFU-161">
          <mxGeometry relative="1" as="geometry" />
        </mxCell>
        <mxCell id="5FhTHJaJXCoP0YKVLGFU-164" style="edgeStyle=orthogonalEdgeStyle;rounded=0;orthogonalLoop=1;jettySize=auto;html=1;entryX=1;entryY=0.5;entryDx=0;entryDy=0;" edge="1" parent="1" source="5FhTHJaJXCoP0YKVLGFU-159" target="5FhTHJaJXCoP0YKVLGFU-163">
          <mxGeometry relative="1" as="geometry" />
        </mxCell>
        <mxCell id="5FhTHJaJXCoP0YKVLGFU-159" value="&lt;span style=&quot;font-size: 16px;&quot;&gt;Quản lí sản phẩm&lt;/span&gt;" style="rounded=1;whiteSpace=wrap;html=1;fillColor=#bac8d3;strokeColor=#23445d;" vertex="1" parent="1">
          <mxGeometry x="3686" y="457" width="180" height="45" as="geometry" />
        </mxCell>
        <mxCell id="5FhTHJaJXCoP0YKVLGFU-178" style="edgeStyle=orthogonalEdgeStyle;rounded=0;orthogonalLoop=1;jettySize=auto;html=1;entryX=0.5;entryY=1;entryDx=0;entryDy=0;" edge="1" parent="1" source="5FhTHJaJXCoP0YKVLGFU-161" target="5FhTHJaJXCoP0YKVLGFU-177">
          <mxGeometry relative="1" as="geometry" />
        </mxCell>
        <mxCell id="5FhTHJaJXCoP0YKVLGFU-161" value="&lt;span style=&quot;font-size: 16px;&quot;&gt;Xem danh sách sản phẩm&lt;/span&gt;" style="rounded=1;whiteSpace=wrap;html=1;fillColor=#bac8d3;strokeColor=#23445d;" vertex="1" parent="1">
          <mxGeometry x="3475" y="466" width="139" height="61" as="geometry" />
        </mxCell>
        <mxCell id="5FhTHJaJXCoP0YKVLGFU-163" value="&lt;span style=&quot;font-size: 16px;&quot;&gt;Thêm, sửa, xoá sản phẩm&lt;/span&gt;" style="rounded=1;whiteSpace=wrap;html=1;fillColor=#bac8d3;strokeColor=#23445d;" vertex="1" parent="1">
          <mxGeometry x="3574" y="571" width="139" height="61" as="geometry" />
        </mxCell>
        <mxCell id="5FhTHJaJXCoP0YKVLGFU-170" style="edgeStyle=orthogonalEdgeStyle;rounded=0;orthogonalLoop=1;jettySize=auto;html=1;" edge="1" parent="1" source="5FhTHJaJXCoP0YKVLGFU-165" target="5FhTHJaJXCoP0YKVLGFU-167">
          <mxGeometry relative="1" as="geometry" />
        </mxCell>
        <mxCell id="5FhTHJaJXCoP0YKVLGFU-171" style="edgeStyle=orthogonalEdgeStyle;rounded=0;orthogonalLoop=1;jettySize=auto;html=1;" edge="1" parent="1" source="5FhTHJaJXCoP0YKVLGFU-165" target="5FhTHJaJXCoP0YKVLGFU-168">
          <mxGeometry relative="1" as="geometry" />
        </mxCell>
        <mxCell id="5FhTHJaJXCoP0YKVLGFU-172" style="edgeStyle=orthogonalEdgeStyle;rounded=0;orthogonalLoop=1;jettySize=auto;html=1;" edge="1" parent="1" source="5FhTHJaJXCoP0YKVLGFU-165" target="5FhTHJaJXCoP0YKVLGFU-169">
          <mxGeometry relative="1" as="geometry" />
        </mxCell>
        <mxCell id="5FhTHJaJXCoP0YKVLGFU-165" value="&lt;span style=&quot;font-size: 16px;&quot;&gt;Quản lí khách hàng&lt;/span&gt;" style="rounded=1;whiteSpace=wrap;html=1;fillColor=#bac8d3;strokeColor=#23445d;" vertex="1" parent="1">
          <mxGeometry x="3913" y="551" width="180" height="45" as="geometry" />
        </mxCell>
        <mxCell id="5FhTHJaJXCoP0YKVLGFU-180" style="edgeStyle=orthogonalEdgeStyle;rounded=0;orthogonalLoop=1;jettySize=auto;html=1;" edge="1" parent="1" source="5FhTHJaJXCoP0YKVLGFU-167" target="5FhTHJaJXCoP0YKVLGFU-179">
          <mxGeometry relative="1" as="geometry" />
        </mxCell>
        <mxCell id="5FhTHJaJXCoP0YKVLGFU-167" value="&lt;span style=&quot;font-size: 16px;&quot;&gt;Xem danh sách khách hàng&lt;/span&gt;" style="rounded=1;whiteSpace=wrap;html=1;fillColor=#bac8d3;strokeColor=#23445d;" vertex="1" parent="1">
          <mxGeometry x="3781" y="691" width="139" height="61" as="geometry" />
        </mxCell>
        <mxCell id="5FhTHJaJXCoP0YKVLGFU-168" value="&lt;span style=&quot;font-size: 16px;&quot;&gt;Xoá khách hàng&lt;/span&gt;" style="rounded=1;whiteSpace=wrap;html=1;fillColor=#bac8d3;strokeColor=#23445d;" vertex="1" parent="1">
          <mxGeometry x="3933.5" y="784" width="139" height="61" as="geometry" />
        </mxCell>
        <mxCell id="5FhTHJaJXCoP0YKVLGFU-169" value="&lt;span style=&quot;font-size: 16px;&quot;&gt;Khoá khách hàng&lt;/span&gt;" style="rounded=1;whiteSpace=wrap;html=1;fillColor=#bac8d3;strokeColor=#23445d;" vertex="1" parent="1">
          <mxGeometry x="4067" y="675" width="139" height="61" as="geometry" />
        </mxCell>
        <mxCell id="5FhTHJaJXCoP0YKVLGFU-182" style="edgeStyle=orthogonalEdgeStyle;rounded=0;orthogonalLoop=1;jettySize=auto;html=1;entryX=0;entryY=0.75;entryDx=0;entryDy=0;" edge="1" parent="1" source="5FhTHJaJXCoP0YKVLGFU-173" target="5FhTHJaJXCoP0YKVLGFU-175">
          <mxGeometry relative="1" as="geometry" />
        </mxCell>
        <mxCell id="5FhTHJaJXCoP0YKVLGFU-183" style="edgeStyle=orthogonalEdgeStyle;rounded=0;orthogonalLoop=1;jettySize=auto;html=1;entryX=0;entryY=0.5;entryDx=0;entryDy=0;" edge="1" parent="1" source="5FhTHJaJXCoP0YKVLGFU-173" target="5FhTHJaJXCoP0YKVLGFU-176">
          <mxGeometry relative="1" as="geometry" />
        </mxCell>
        <mxCell id="5FhTHJaJXCoP0YKVLGFU-173" value="&lt;span style=&quot;font-size: 16px;&quot;&gt;Quản lí đơn hàng&lt;/span&gt;" style="rounded=1;whiteSpace=wrap;html=1;fillColor=#bac8d3;strokeColor=#23445d;" vertex="1" parent="1">
          <mxGeometry x="4151" y="417" width="180" height="45" as="geometry" />
        </mxCell>
        <mxCell id="5FhTHJaJXCoP0YKVLGFU-184" style="edgeStyle=orthogonalEdgeStyle;rounded=0;orthogonalLoop=1;jettySize=auto;html=1;entryX=0;entryY=0.5;entryDx=0;entryDy=0;" edge="1" parent="1" source="5FhTHJaJXCoP0YKVLGFU-175" target="5FhTHJaJXCoP0YKVLGFU-181">
          <mxGeometry relative="1" as="geometry" />
        </mxCell>
        <mxCell id="5FhTHJaJXCoP0YKVLGFU-175" value="&lt;span style=&quot;font-size: 16px;&quot;&gt;Xem danh sách đơn hàng&lt;/span&gt;" style="rounded=1;whiteSpace=wrap;html=1;fillColor=#bac8d3;strokeColor=#23445d;" vertex="1" parent="1">
          <mxGeometry x="4385" y="314" width="139" height="61" as="geometry" />
        </mxCell>
        <mxCell id="5FhTHJaJXCoP0YKVLGFU-176" value="&lt;span style=&quot;font-size: 16px;&quot;&gt;Xoá đơn hàng&lt;/span&gt;" style="rounded=1;whiteSpace=wrap;html=1;fillColor=#bac8d3;strokeColor=#23445d;" vertex="1" parent="1">
          <mxGeometry x="4401" y="466" width="139" height="61" as="geometry" />
        </mxCell>
        <mxCell id="5FhTHJaJXCoP0YKVLGFU-177" value="&lt;span style=&quot;font-size: 16px;&quot;&gt;Xem chi tiết sản phẩm&lt;/span&gt;" style="rounded=1;whiteSpace=wrap;html=1;fillColor=#bac8d3;strokeColor=#23445d;" vertex="1" parent="1">
          <mxGeometry x="3459.5" y="356" width="139" height="61" as="geometry" />
        </mxCell>
        <mxCell id="5FhTHJaJXCoP0YKVLGFU-179" value="&lt;span style=&quot;font-size: 16px;&quot;&gt;Xem chi tiết khách hàng&lt;/span&gt;" style="rounded=1;whiteSpace=wrap;html=1;fillColor=#bac8d3;strokeColor=#23445d;" vertex="1" parent="1">
          <mxGeometry x="3684" y="790" width="139" height="61" as="geometry" />
        </mxCell>
        <mxCell id="5FhTHJaJXCoP0YKVLGFU-181" value="&lt;span style=&quot;font-size: 16px;&quot;&gt;Xem chi tiết đơn hàng&lt;/span&gt;" style="rounded=1;whiteSpace=wrap;html=1;fillColor=#bac8d3;strokeColor=#23445d;" vertex="1" parent="1">
          <mxGeometry x="4498" y="210" width="139" height="61" as="geometry" />
        </mxCell>
        <mxCell id="5FhTHJaJXCoP0YKVLGFU-208" style="edgeStyle=orthogonalEdgeStyle;rounded=0;orthogonalLoop=1;jettySize=auto;html=1;" edge="1" parent="1" source="5FhTHJaJXCoP0YKVLGFU-186" target="5FhTHJaJXCoP0YKVLGFU-198">
          <mxGeometry relative="1" as="geometry" />
        </mxCell>
        <mxCell id="5FhTHJaJXCoP0YKVLGFU-186" value="User" style="swimlane;fontStyle=0;childLayout=stackLayout;horizontal=1;startSize=30;horizontalStack=0;resizeParent=1;resizeParentMax=0;resizeLast=0;collapsible=1;marginBottom=0;whiteSpace=wrap;html=1;fillColor=#dae8fc;strokeColor=#6c8ebf;" vertex="1" parent="1">
          <mxGeometry x="2560" y="1137" width="218" height="450" as="geometry" />
        </mxCell>
        <mxCell id="5FhTHJaJXCoP0YKVLGFU-187" value="id: string" style="text;strokeColor=none;fillColor=none;align=left;verticalAlign=middle;spacingLeft=4;spacingRight=4;overflow=hidden;points=[[0,0.5],[1,0.5]];portConstraint=eastwest;rotatable=0;whiteSpace=wrap;html=1;" vertex="1" parent="5FhTHJaJXCoP0YKVLGFU-186">
          <mxGeometry y="30" width="218" height="30" as="geometry" />
        </mxCell>
        <mxCell id="5FhTHJaJXCoP0YKVLGFU-188" value="name: string" style="text;strokeColor=none;fillColor=none;align=left;verticalAlign=middle;spacingLeft=4;spacingRight=4;overflow=hidden;points=[[0,0.5],[1,0.5]];portConstraint=eastwest;rotatable=0;whiteSpace=wrap;html=1;" vertex="1" parent="5FhTHJaJXCoP0YKVLGFU-186">
          <mxGeometry y="60" width="218" height="30" as="geometry" />
        </mxCell>
        <mxCell id="5FhTHJaJXCoP0YKVLGFU-189" value="password: string" style="text;strokeColor=none;fillColor=none;align=left;verticalAlign=middle;spacingLeft=4;spacingRight=4;overflow=hidden;points=[[0,0.5],[1,0.5]];portConstraint=eastwest;rotatable=0;whiteSpace=wrap;html=1;" vertex="1" parent="5FhTHJaJXCoP0YKVLGFU-186">
          <mxGeometry y="90" width="218" height="30" as="geometry" />
        </mxCell>
        <mxCell id="5FhTHJaJXCoP0YKVLGFU-190" value="email: string" style="text;strokeColor=none;fillColor=none;align=left;verticalAlign=middle;spacingLeft=4;spacingRight=4;overflow=hidden;points=[[0,0.5],[1,0.5]];portConstraint=eastwest;rotatable=0;whiteSpace=wrap;html=1;" vertex="1" parent="5FhTHJaJXCoP0YKVLGFU-186">
          <mxGeometry y="120" width="218" height="30" as="geometry" />
        </mxCell>
        <mxCell id="5FhTHJaJXCoP0YKVLGFU-192" value="" style="endArrow=none;html=1;rounded=0;entryX=1.001;entryY=0.094;entryDx=0;entryDy=0;entryPerimeter=0;exitX=0.002;exitY=0.095;exitDx=0;exitDy=0;exitPerimeter=0;" edge="1" parent="5FhTHJaJXCoP0YKVLGFU-186" source="5FhTHJaJXCoP0YKVLGFU-191" target="5FhTHJaJXCoP0YKVLGFU-191">
          <mxGeometry width="50" height="50" relative="1" as="geometry">
            <mxPoint x="2" y="151" as="sourcePoint" />
            <mxPoint x="111" y="165" as="targetPoint" />
          </mxGeometry>
        </mxCell>
        <mxCell id="5FhTHJaJXCoP0YKVLGFU-194" value="role: string" style="text;strokeColor=none;fillColor=none;align=left;verticalAlign=middle;spacingLeft=4;spacingRight=4;overflow=hidden;points=[[0,0.5],[1,0.5]];portConstraint=eastwest;rotatable=0;whiteSpace=wrap;html=1;" vertex="1" parent="5FhTHJaJXCoP0YKVLGFU-186">
          <mxGeometry y="150" width="218" height="30" as="geometry" />
        </mxCell>
        <mxCell id="5FhTHJaJXCoP0YKVLGFU-249" value="country: string&lt;span style=&quot;color: rgba(0, 0, 0, 0); font-family: monospace; font-size: 0px; text-wrap-mode: nowrap;&quot;&gt;%3CmxGraphModel%3E%3Croot%3E%3CmxCell%20id%3D%220%22%2F%3E%3CmxCell%20id%3D%221%22%20parent%3D%220%22%2F%3E%3CmxCell%20id%3D%222%22%20value%3D%22role%3A%20string%22%20style%3D%22text%3BstrokeColor%3Dnone%3BfillColor%3Dnone%3Balign%3Dleft%3BverticalAlign%3Dmiddle%3BspacingLeft%3D4%3BspacingRight%3D4%3Boverflow%3Dhidden%3Bpoints%3D%5B%5B0%2C0.5%5D%2C%5B1%2C0.5%5D%5D%3BportConstraint%3Deastwest%3Brotatable%3D0%3BwhiteSpace%3Dwrap%3Bhtml%3D1%3B%22%20vertex%3D%221%22%20parent%3D%221%22%3E%3CmxGeometry%20x%3D%222636%22%20y%3D%221287%22%20width%3D%22142%22%20height%3D%2230%22%20as%3D%22geometry%22%2F%3E%3C%2FmxCell%3E%3C%2Froot%3E%3C%2FmxGraphModel%3E&lt;/span&gt;" style="text;strokeColor=none;fillColor=none;align=left;verticalAlign=middle;spacingLeft=4;spacingRight=4;overflow=hidden;points=[[0,0.5],[1,0.5]];portConstraint=eastwest;rotatable=0;whiteSpace=wrap;html=1;" vertex="1" parent="5FhTHJaJXCoP0YKVLGFU-186">
          <mxGeometry y="180" width="218" height="30" as="geometry" />
        </mxCell>
        <mxCell id="5FhTHJaJXCoP0YKVLGFU-250" value="dob: Date&lt;span style=&quot;color: rgba(0, 0, 0, 0); font-family: monospace; font-size: 0px; text-wrap-mode: nowrap;&quot;&gt;%3CmxGraphModel%3E%3Croot%3E%3CmxCell%20id%3D%220%22%2F%3E%3CmxCell%20id%3D%221%22%20parent%3D%220%22%2F%3E%3CmxCell%20id%3D%222%22%20value%3D%22country%3A%20string%26lt%3Bspan%20style%3D%26quot%3Bcolor%3A%20rgba(0%2C%200%2C%200%2C%200)%3B%20font-family%3A%20monospace%3B%20font-size%3A%200px%3B%20text-wrap-mode%3A%20nowrap%3B%26quot%3B%26gt%3B%253CmxGraphModel%253E%253Croot%253E%253CmxCell%2520id%253D%25220%2522%252F%253E%253CmxCell%2520id%253D%25221%2522%2520parent%253D%25220%2522%252F%253E%253CmxCell%2520id%253D%25222%2522%2520value%253D%2522role%253A%2520string%2522%2520style%253D%2522text%253BstrokeColor%253Dnone%253BfillColor%253Dnone%253Balign%253Dleft%253BverticalAlign%253Dmiddle%253BspacingLeft%253D4%253BspacingRight%253D4%253Boverflow%253Dhidden%253Bpoints%253D%255B%255B0%252C0.5%255D%252C%255B1%252C0.5%255D%255D%253BportConstraint%253Deastwest%253Brotatable%253D0%253BwhiteSpace%253Dwrap%253Bhtml%253D1%253B%2522%2520vertex%253D%25221%2522%2520parent%253D%25221%2522%253E%253CmxGeometry%2520x%253D%25222636%2522%2520y%253D%25221287%2522%2520width%253D%2522142%2522%2520height%253D%252230%2522%2520as%253D%2522geometry%2522%252F%253E%253C%252FmxCell%253E%253C%252Froot%253E%253C%252FmxGraphModel%253E%26lt%3B%2Fspan%26gt%3B%22%20style%3D%22text%3BstrokeColor%3Dnone%3BfillColor%3Dnone%3Balign%3Dleft%3BverticalAlign%3Dmiddle%3BspacingLeft%3D4%3BspacingRight%3D4%3Boverflow%3Dhidden%3Bpoints%3D%5B%5B0%2C0.5%5D%2C%5B1%2C0.5%5D%5D%3BportConstraint%3Deastwest%3Brotatable%3D0%3BwhiteSpace%3Dwrap%3Bhtml%3D1%3B%22%20vertex%3D%221%22%20parent%3D%221%22%3E%3CmxGeometry%20x%3D%222636%22%20y%3D%221317%22%20width%3D%22142%22%20height%3D%2230%22%20as%3D%22geometry%22%2F%3E%3C%2FmxCell%3E%3C%2Froot%3E%3C%2FmxGraphModel%3E&lt;/span&gt;" style="text;strokeColor=none;fillColor=none;align=left;verticalAlign=middle;spacingLeft=4;spacingRight=4;overflow=hidden;points=[[0,0.5],[1,0.5]];portConstraint=eastwest;rotatable=0;whiteSpace=wrap;html=1;" vertex="1" parent="5FhTHJaJXCoP0YKVLGFU-186">
          <mxGeometry y="210" width="218" height="30" as="geometry" />
        </mxCell>
        <mxCell id="5FhTHJaJXCoP0YKVLGFU-251" value="phone: string" style="text;strokeColor=none;fillColor=none;align=left;verticalAlign=middle;spacingLeft=4;spacingRight=4;overflow=hidden;points=[[0,0.5],[1,0.5]];portConstraint=eastwest;rotatable=0;whiteSpace=wrap;html=1;" vertex="1" parent="5FhTHJaJXCoP0YKVLGFU-186">
          <mxGeometry y="240" width="218" height="30" as="geometry" />
        </mxCell>
        <mxCell id="5FhTHJaJXCoP0YKVLGFU-253" value="createAt: Date" style="text;strokeColor=none;fillColor=none;align=left;verticalAlign=middle;spacingLeft=4;spacingRight=4;overflow=hidden;points=[[0,0.5],[1,0.5]];portConstraint=eastwest;rotatable=0;whiteSpace=wrap;html=1;" vertex="1" parent="5FhTHJaJXCoP0YKVLGFU-186">
          <mxGeometry y="270" width="218" height="30" as="geometry" />
        </mxCell>
        <mxCell id="5FhTHJaJXCoP0YKVLGFU-254" value="updateAt: Date" style="text;strokeColor=none;fillColor=none;align=left;verticalAlign=middle;spacingLeft=4;spacingRight=4;overflow=hidden;points=[[0,0.5],[1,0.5]];portConstraint=eastwest;rotatable=0;whiteSpace=wrap;html=1;" vertex="1" parent="5FhTHJaJXCoP0YKVLGFU-186">
          <mxGeometry y="300" width="218" height="30" as="geometry" />
        </mxCell>
        <mxCell id="5FhTHJaJXCoP0YKVLGFU-252" value="address: string" style="text;strokeColor=none;fillColor=none;align=left;verticalAlign=middle;spacingLeft=4;spacingRight=4;overflow=hidden;points=[[0,0.5],[1,0.5]];portConstraint=eastwest;rotatable=0;whiteSpace=wrap;html=1;" vertex="1" parent="5FhTHJaJXCoP0YKVLGFU-186">
          <mxGeometry y="330" width="218" height="30" as="geometry" />
        </mxCell>
        <mxCell id="5FhTHJaJXCoP0YKVLGFU-255" value="_destroy: boolean" style="text;strokeColor=none;fillColor=none;align=left;verticalAlign=middle;spacingLeft=4;spacingRight=4;overflow=hidden;points=[[0,0.5],[1,0.5]];portConstraint=eastwest;rotatable=0;whiteSpace=wrap;html=1;" vertex="1" parent="5FhTHJaJXCoP0YKVLGFU-186">
          <mxGeometry y="360" width="218" height="30" as="geometry" />
        </mxCell>
        <mxCell id="5FhTHJaJXCoP0YKVLGFU-191" value="sign-in()" style="text;strokeColor=none;fillColor=none;align=left;verticalAlign=middle;spacingLeft=4;spacingRight=4;overflow=hidden;points=[[0,0.5],[1,0.5]];portConstraint=eastwest;rotatable=0;whiteSpace=wrap;html=1;" vertex="1" parent="5FhTHJaJXCoP0YKVLGFU-186">
          <mxGeometry y="390" width="218" height="30" as="geometry" />
        </mxCell>
        <mxCell id="5FhTHJaJXCoP0YKVLGFU-195" value="sign-up()&lt;span style=&quot;color: rgba(0, 0, 0, 0); font-family: monospace; font-size: 0px; text-wrap-mode: nowrap;&quot;&gt;%3CmxGraphModel%3E%3Croot%3E%3CmxCell%20id%3D%220%22%2F%3E%3CmxCell%20id%3D%221%22%20parent%3D%220%22%2F%3E%3CmxCell%20id%3D%222%22%20value%3D%22role%3A%20string%22%20style%3D%22text%3BstrokeColor%3Dnone%3BfillColor%3Dnone%3Balign%3Dleft%3BverticalAlign%3Dmiddle%3BspacingLeft%3D4%3BspacingRight%3D4%3Boverflow%3Dhidden%3Bpoints%3D%5B%5B0%2C0.5%5D%2C%5B1%2C0.5%5D%5D%3BportConstraint%3Deastwest%3Brotatable%3D0%3BwhiteSpace%3Dwrap%3Bhtml%3D1%3B%22%20vertex%3D%221%22%20parent%3D%221%22%3E%3CmxGeometry%20x%3D%222636%22%20y%3D%221287%22%20width%3D%22142%22%20height%3D%2230%22%20as%3D%22geometry%22%2F%3E%3C%2FmxCell%3E%3C%2Froot%3E%3C%2FmxGraphModel%3E&lt;/span&gt;" style="text;strokeColor=none;fillColor=none;align=left;verticalAlign=middle;spacingLeft=4;spacingRight=4;overflow=hidden;points=[[0,0.5],[1,0.5]];portConstraint=eastwest;rotatable=0;whiteSpace=wrap;html=1;" vertex="1" parent="5FhTHJaJXCoP0YKVLGFU-186">
          <mxGeometry y="420" width="218" height="30" as="geometry" />
        </mxCell>
        <mxCell id="5FhTHJaJXCoP0YKVLGFU-220" style="edgeStyle=orthogonalEdgeStyle;rounded=0;orthogonalLoop=1;jettySize=auto;html=1;" edge="1" parent="1" source="5FhTHJaJXCoP0YKVLGFU-198" target="5FhTHJaJXCoP0YKVLGFU-209">
          <mxGeometry relative="1" as="geometry" />
        </mxCell>
        <mxCell id="5FhTHJaJXCoP0YKVLGFU-198" value="Product" style="swimlane;fontStyle=0;childLayout=stackLayout;horizontal=1;startSize=30;horizontalStack=0;resizeParent=1;resizeParentMax=0;resizeLast=0;collapsible=1;marginBottom=0;whiteSpace=wrap;html=1;fillColor=#fff2cc;strokeColor=#d6b656;" vertex="1" parent="1">
          <mxGeometry x="2880" y="1182" width="194" height="360" as="geometry" />
        </mxCell>
        <mxCell id="5FhTHJaJXCoP0YKVLGFU-199" value="id: string" style="text;strokeColor=none;fillColor=none;align=left;verticalAlign=middle;spacingLeft=4;spacingRight=4;overflow=hidden;points=[[0,0.5],[1,0.5]];portConstraint=eastwest;rotatable=0;whiteSpace=wrap;html=1;" vertex="1" parent="5FhTHJaJXCoP0YKVLGFU-198">
          <mxGeometry y="30" width="194" height="30" as="geometry" />
        </mxCell>
        <mxCell id="5FhTHJaJXCoP0YKVLGFU-200" value="name: string" style="text;strokeColor=none;fillColor=none;align=left;verticalAlign=middle;spacingLeft=4;spacingRight=4;overflow=hidden;points=[[0,0.5],[1,0.5]];portConstraint=eastwest;rotatable=0;whiteSpace=wrap;html=1;" vertex="1" parent="5FhTHJaJXCoP0YKVLGFU-198">
          <mxGeometry y="60" width="194" height="30" as="geometry" />
        </mxCell>
        <mxCell id="5FhTHJaJXCoP0YKVLGFU-201" value="price: float" style="text;strokeColor=none;fillColor=none;align=left;verticalAlign=middle;spacingLeft=4;spacingRight=4;overflow=hidden;points=[[0,0.5],[1,0.5]];portConstraint=eastwest;rotatable=0;whiteSpace=wrap;html=1;" vertex="1" parent="5FhTHJaJXCoP0YKVLGFU-198">
          <mxGeometry y="90" width="194" height="30" as="geometry" />
        </mxCell>
        <mxCell id="5FhTHJaJXCoP0YKVLGFU-202" value="color: Array" style="text;strokeColor=none;fillColor=none;align=left;verticalAlign=middle;spacingLeft=4;spacingRight=4;overflow=hidden;points=[[0,0.5],[1,0.5]];portConstraint=eastwest;rotatable=0;whiteSpace=wrap;html=1;" vertex="1" parent="5FhTHJaJXCoP0YKVLGFU-198">
          <mxGeometry y="120" width="194" height="30" as="geometry" />
        </mxCell>
        <mxCell id="5FhTHJaJXCoP0YKVLGFU-204" value="size: array" style="text;strokeColor=none;fillColor=none;align=left;verticalAlign=middle;spacingLeft=4;spacingRight=4;overflow=hidden;points=[[0,0.5],[1,0.5]];portConstraint=eastwest;rotatable=0;whiteSpace=wrap;html=1;" vertex="1" parent="5FhTHJaJXCoP0YKVLGFU-198">
          <mxGeometry y="150" width="194" height="30" as="geometry" />
        </mxCell>
        <mxCell id="5FhTHJaJXCoP0YKVLGFU-256" value="createAt: Date" style="text;strokeColor=none;fillColor=none;align=left;verticalAlign=middle;spacingLeft=4;spacingRight=4;overflow=hidden;points=[[0,0.5],[1,0.5]];portConstraint=eastwest;rotatable=0;whiteSpace=wrap;html=1;" vertex="1" parent="5FhTHJaJXCoP0YKVLGFU-198">
          <mxGeometry y="180" width="194" height="30" as="geometry" />
        </mxCell>
        <mxCell id="5FhTHJaJXCoP0YKVLGFU-258" value="updateAt: Date" style="text;strokeColor=none;fillColor=none;align=left;verticalAlign=middle;spacingLeft=4;spacingRight=4;overflow=hidden;points=[[0,0.5],[1,0.5]];portConstraint=eastwest;rotatable=0;whiteSpace=wrap;html=1;" vertex="1" parent="5FhTHJaJXCoP0YKVLGFU-198">
          <mxGeometry y="210" width="194" height="30" as="geometry" />
        </mxCell>
        <mxCell id="5FhTHJaJXCoP0YKVLGFU-257" value="desc: string" style="text;strokeColor=none;fillColor=none;align=left;verticalAlign=middle;spacingLeft=4;spacingRight=4;overflow=hidden;points=[[0,0.5],[1,0.5]];portConstraint=eastwest;rotatable=0;whiteSpace=wrap;html=1;" vertex="1" parent="5FhTHJaJXCoP0YKVLGFU-198">
          <mxGeometry y="240" width="194" height="30" as="geometry" />
        </mxCell>
        <mxCell id="5FhTHJaJXCoP0YKVLGFU-259" value="quantitySold: int" style="text;strokeColor=none;fillColor=none;align=left;verticalAlign=middle;spacingLeft=4;spacingRight=4;overflow=hidden;points=[[0,0.5],[1,0.5]];portConstraint=eastwest;rotatable=0;whiteSpace=wrap;html=1;" vertex="1" parent="5FhTHJaJXCoP0YKVLGFU-198">
          <mxGeometry y="270" width="194" height="30" as="geometry" />
        </mxCell>
        <mxCell id="5FhTHJaJXCoP0YKVLGFU-260" value="stock: int" style="text;strokeColor=none;fillColor=none;align=left;verticalAlign=middle;spacingLeft=4;spacingRight=4;overflow=hidden;points=[[0,0.5],[1,0.5]];portConstraint=eastwest;rotatable=0;whiteSpace=wrap;html=1;" vertex="1" parent="5FhTHJaJXCoP0YKVLGFU-198">
          <mxGeometry y="300" width="194" height="30" as="geometry" />
        </mxCell>
        <mxCell id="5FhTHJaJXCoP0YKVLGFU-261" value="_destroy: boolean" style="text;strokeColor=none;fillColor=none;align=left;verticalAlign=middle;spacingLeft=4;spacingRight=4;overflow=hidden;points=[[0,0.5],[1,0.5]];portConstraint=eastwest;rotatable=0;whiteSpace=wrap;html=1;" vertex="1" parent="5FhTHJaJXCoP0YKVLGFU-198">
          <mxGeometry y="330" width="194" height="30" as="geometry" />
        </mxCell>
        <mxCell id="5FhTHJaJXCoP0YKVLGFU-209" value="Order" style="swimlane;fontStyle=0;childLayout=stackLayout;horizontal=1;startSize=30;horizontalStack=0;resizeParent=1;resizeParentMax=0;resizeLast=0;collapsible=1;marginBottom=0;whiteSpace=wrap;html=1;fillColor=#e1d5e7;strokeColor=#9673a6;" vertex="1" parent="1">
          <mxGeometry x="3180" y="1142" width="177" height="420" as="geometry" />
        </mxCell>
        <mxCell id="5FhTHJaJXCoP0YKVLGFU-210" value="id: string" style="text;strokeColor=none;fillColor=none;align=left;verticalAlign=middle;spacingLeft=4;spacingRight=4;overflow=hidden;points=[[0,0.5],[1,0.5]];portConstraint=eastwest;rotatable=0;whiteSpace=wrap;html=1;" vertex="1" parent="5FhTHJaJXCoP0YKVLGFU-209">
          <mxGeometry y="30" width="177" height="30" as="geometry" />
        </mxCell>
        <mxCell id="5FhTHJaJXCoP0YKVLGFU-213" value="date: Date" style="text;strokeColor=none;fillColor=none;align=left;verticalAlign=middle;spacingLeft=4;spacingRight=4;overflow=hidden;points=[[0,0.5],[1,0.5]];portConstraint=eastwest;rotatable=0;whiteSpace=wrap;html=1;" vertex="1" parent="5FhTHJaJXCoP0YKVLGFU-209">
          <mxGeometry y="60" width="177" height="30" as="geometry" />
        </mxCell>
        <mxCell id="5FhTHJaJXCoP0YKVLGFU-214" value="" style="endArrow=none;html=1;rounded=0;entryX=1.001;entryY=0.094;entryDx=0;entryDy=0;entryPerimeter=0;exitX=0.002;exitY=0.095;exitDx=0;exitDy=0;exitPerimeter=0;" edge="1" parent="5FhTHJaJXCoP0YKVLGFU-209" source="5FhTHJaJXCoP0YKVLGFU-216" target="5FhTHJaJXCoP0YKVLGFU-216">
          <mxGeometry width="50" height="50" relative="1" as="geometry">
            <mxPoint x="2" y="151" as="sourcePoint" />
            <mxPoint x="111" y="165" as="targetPoint" />
          </mxGeometry>
        </mxCell>
        <mxCell id="5FhTHJaJXCoP0YKVLGFU-215" value="total: float" style="text;strokeColor=none;fillColor=none;align=left;verticalAlign=middle;spacingLeft=4;spacingRight=4;overflow=hidden;points=[[0,0.5],[1,0.5]];portConstraint=eastwest;rotatable=0;whiteSpace=wrap;html=1;" vertex="1" parent="5FhTHJaJXCoP0YKVLGFU-209">
          <mxGeometry y="90" width="177" height="30" as="geometry" />
        </mxCell>
        <mxCell id="5FhTHJaJXCoP0YKVLGFU-218" value="status: array (&#39;cart&#39;, &#39;order&#39;)" style="text;strokeColor=none;fillColor=none;align=left;verticalAlign=middle;spacingLeft=4;spacingRight=4;overflow=hidden;points=[[0,0.5],[1,0.5]];portConstraint=eastwest;rotatable=0;whiteSpace=wrap;html=1;" vertex="1" parent="5FhTHJaJXCoP0YKVLGFU-209">
          <mxGeometry y="120" width="177" height="30" as="geometry" />
        </mxCell>
        <mxCell id="5FhTHJaJXCoP0YKVLGFU-262" value="address: string" style="text;strokeColor=none;fillColor=none;align=left;verticalAlign=middle;spacingLeft=4;spacingRight=4;overflow=hidden;points=[[0,0.5],[1,0.5]];portConstraint=eastwest;rotatable=0;whiteSpace=wrap;html=1;" vertex="1" parent="5FhTHJaJXCoP0YKVLGFU-209">
          <mxGeometry y="150" width="177" height="30" as="geometry" />
        </mxCell>
        <mxCell id="5FhTHJaJXCoP0YKVLGFU-264" value="name: string" style="text;strokeColor=none;fillColor=none;align=left;verticalAlign=middle;spacingLeft=4;spacingRight=4;overflow=hidden;points=[[0,0.5],[1,0.5]];portConstraint=eastwest;rotatable=0;whiteSpace=wrap;html=1;" vertex="1" parent="5FhTHJaJXCoP0YKVLGFU-209">
          <mxGeometry y="180" width="177" height="30" as="geometry" />
        </mxCell>
        <mxCell id="5FhTHJaJXCoP0YKVLGFU-266" value="payment: string" style="text;strokeColor=none;fillColor=none;align=left;verticalAlign=middle;spacingLeft=4;spacingRight=4;overflow=hidden;points=[[0,0.5],[1,0.5]];portConstraint=eastwest;rotatable=0;whiteSpace=wrap;html=1;" vertex="1" parent="5FhTHJaJXCoP0YKVLGFU-209">
          <mxGeometry y="210" width="177" height="30" as="geometry" />
        </mxCell>
        <mxCell id="5FhTHJaJXCoP0YKVLGFU-265" value="phone: string" style="text;strokeColor=none;fillColor=none;align=left;verticalAlign=middle;spacingLeft=4;spacingRight=4;overflow=hidden;points=[[0,0.5],[1,0.5]];portConstraint=eastwest;rotatable=0;whiteSpace=wrap;html=1;" vertex="1" parent="5FhTHJaJXCoP0YKVLGFU-209">
          <mxGeometry y="240" width="177" height="30" as="geometry" />
        </mxCell>
        <mxCell id="5FhTHJaJXCoP0YKVLGFU-267" value="updateAt: Date" style="text;strokeColor=none;fillColor=none;align=left;verticalAlign=middle;spacingLeft=4;spacingRight=4;overflow=hidden;points=[[0,0.5],[1,0.5]];portConstraint=eastwest;rotatable=0;whiteSpace=wrap;html=1;" vertex="1" parent="5FhTHJaJXCoP0YKVLGFU-209">
          <mxGeometry y="270" width="177" height="30" as="geometry" />
        </mxCell>
        <mxCell id="5FhTHJaJXCoP0YKVLGFU-263" value="createAt: Date" style="text;strokeColor=none;fillColor=none;align=left;verticalAlign=middle;spacingLeft=4;spacingRight=4;overflow=hidden;points=[[0,0.5],[1,0.5]];portConstraint=eastwest;rotatable=0;whiteSpace=wrap;html=1;" vertex="1" parent="5FhTHJaJXCoP0YKVLGFU-209">
          <mxGeometry y="300" width="177" height="30" as="geometry" />
        </mxCell>
        <mxCell id="5FhTHJaJXCoP0YKVLGFU-216" value="add-product()" style="text;strokeColor=none;fillColor=none;align=left;verticalAlign=middle;spacingLeft=4;spacingRight=4;overflow=hidden;points=[[0,0.5],[1,0.5]];portConstraint=eastwest;rotatable=0;whiteSpace=wrap;html=1;" vertex="1" parent="5FhTHJaJXCoP0YKVLGFU-209">
          <mxGeometry y="330" width="177" height="30" as="geometry" />
        </mxCell>
        <mxCell id="5FhTHJaJXCoP0YKVLGFU-217" value="create()" style="text;strokeColor=none;fillColor=none;align=left;verticalAlign=middle;spacingLeft=4;spacingRight=4;overflow=hidden;points=[[0,0.5],[1,0.5]];portConstraint=eastwest;rotatable=0;whiteSpace=wrap;html=1;" vertex="1" parent="5FhTHJaJXCoP0YKVLGFU-209">
          <mxGeometry y="360" width="177" height="30" as="geometry" />
        </mxCell>
        <mxCell id="5FhTHJaJXCoP0YKVLGFU-219" value="update-status()" style="text;strokeColor=none;fillColor=none;align=left;verticalAlign=middle;spacingLeft=4;spacingRight=4;overflow=hidden;points=[[0,0.5],[1,0.5]];portConstraint=eastwest;rotatable=0;whiteSpace=wrap;html=1;" vertex="1" parent="5FhTHJaJXCoP0YKVLGFU-209">
          <mxGeometry y="390" width="177" height="30" as="geometry" />
        </mxCell>
        <mxCell id="5FhTHJaJXCoP0YKVLGFU-222" value="User" style="swimlane;fontStyle=0;childLayout=stackLayout;horizontal=1;startSize=30;horizontalStack=0;resizeParent=1;resizeParentMax=0;resizeLast=0;collapsible=1;marginBottom=0;whiteSpace=wrap;html=1;fillColor=#dae8fc;strokeColor=#6c8ebf;" vertex="1" parent="1">
          <mxGeometry x="3095" y="1852" width="167" height="240" as="geometry" />
        </mxCell>
        <mxCell id="5FhTHJaJXCoP0YKVLGFU-223" value="id: string" style="text;strokeColor=none;fillColor=none;align=left;verticalAlign=middle;spacingLeft=4;spacingRight=4;overflow=hidden;points=[[0,0.5],[1,0.5]];portConstraint=eastwest;rotatable=0;whiteSpace=wrap;html=1;" vertex="1" parent="5FhTHJaJXCoP0YKVLGFU-222">
          <mxGeometry y="30" width="167" height="30" as="geometry" />
        </mxCell>
        <mxCell id="5FhTHJaJXCoP0YKVLGFU-224" value="name: string" style="text;strokeColor=none;fillColor=none;align=left;verticalAlign=middle;spacingLeft=4;spacingRight=4;overflow=hidden;points=[[0,0.5],[1,0.5]];portConstraint=eastwest;rotatable=0;whiteSpace=wrap;html=1;" vertex="1" parent="5FhTHJaJXCoP0YKVLGFU-222">
          <mxGeometry y="60" width="167" height="30" as="geometry" />
        </mxCell>
        <mxCell id="5FhTHJaJXCoP0YKVLGFU-225" value="password: string" style="text;strokeColor=none;fillColor=none;align=left;verticalAlign=middle;spacingLeft=4;spacingRight=4;overflow=hidden;points=[[0,0.5],[1,0.5]];portConstraint=eastwest;rotatable=0;whiteSpace=wrap;html=1;" vertex="1" parent="5FhTHJaJXCoP0YKVLGFU-222">
          <mxGeometry y="90" width="167" height="30" as="geometry" />
        </mxCell>
        <mxCell id="5FhTHJaJXCoP0YKVLGFU-226" value="email: string" style="text;strokeColor=none;fillColor=none;align=left;verticalAlign=middle;spacingLeft=4;spacingRight=4;overflow=hidden;points=[[0,0.5],[1,0.5]];portConstraint=eastwest;rotatable=0;whiteSpace=wrap;html=1;" vertex="1" parent="5FhTHJaJXCoP0YKVLGFU-222">
          <mxGeometry y="120" width="167" height="30" as="geometry" />
        </mxCell>
        <mxCell id="5FhTHJaJXCoP0YKVLGFU-227" value="" style="endArrow=none;html=1;rounded=0;entryX=1.001;entryY=0.094;entryDx=0;entryDy=0;entryPerimeter=0;exitX=0.002;exitY=0.095;exitDx=0;exitDy=0;exitPerimeter=0;" edge="1" parent="5FhTHJaJXCoP0YKVLGFU-222" source="5FhTHJaJXCoP0YKVLGFU-229" target="5FhTHJaJXCoP0YKVLGFU-229">
          <mxGeometry width="50" height="50" relative="1" as="geometry">
            <mxPoint x="2" y="151" as="sourcePoint" />
            <mxPoint x="111" y="165" as="targetPoint" />
          </mxGeometry>
        </mxCell>
        <mxCell id="5FhTHJaJXCoP0YKVLGFU-228" value="role: string" style="text;strokeColor=none;fillColor=none;align=left;verticalAlign=middle;spacingLeft=4;spacingRight=4;overflow=hidden;points=[[0,0.5],[1,0.5]];portConstraint=eastwest;rotatable=0;whiteSpace=wrap;html=1;" vertex="1" parent="5FhTHJaJXCoP0YKVLGFU-222">
          <mxGeometry y="150" width="167" height="30" as="geometry" />
        </mxCell>
        <mxCell id="5FhTHJaJXCoP0YKVLGFU-229" value="sign-in()" style="text;strokeColor=none;fillColor=none;align=left;verticalAlign=middle;spacingLeft=4;spacingRight=4;overflow=hidden;points=[[0,0.5],[1,0.5]];portConstraint=eastwest;rotatable=0;whiteSpace=wrap;html=1;" vertex="1" parent="5FhTHJaJXCoP0YKVLGFU-222">
          <mxGeometry y="180" width="167" height="30" as="geometry" />
        </mxCell>
        <mxCell id="5FhTHJaJXCoP0YKVLGFU-230" value="sign-up()&lt;span style=&quot;color: rgba(0, 0, 0, 0); font-family: monospace; font-size: 0px; text-wrap-mode: nowrap;&quot;&gt;%3CmxGraphModel%3E%3Croot%3E%3CmxCell%20id%3D%220%22%2F%3E%3CmxCell%20id%3D%221%22%20parent%3D%220%22%2F%3E%3CmxCell%20id%3D%222%22%20value%3D%22role%3A%20string%22%20style%3D%22text%3BstrokeColor%3Dnone%3BfillColor%3Dnone%3Balign%3Dleft%3BverticalAlign%3Dmiddle%3BspacingLeft%3D4%3BspacingRight%3D4%3Boverflow%3Dhidden%3Bpoints%3D%5B%5B0%2C0.5%5D%2C%5B1%2C0.5%5D%5D%3BportConstraint%3Deastwest%3Brotatable%3D0%3BwhiteSpace%3Dwrap%3Bhtml%3D1%3B%22%20vertex%3D%221%22%20parent%3D%221%22%3E%3CmxGeometry%20x%3D%222636%22%20y%3D%221287%22%20width%3D%22142%22%20height%3D%2230%22%20as%3D%22geometry%22%2F%3E%3C%2FmxCell%3E%3C%2Froot%3E%3C%2FmxGraphModel%3E&lt;/span&gt;" style="text;strokeColor=none;fillColor=none;align=left;verticalAlign=middle;spacingLeft=4;spacingRight=4;overflow=hidden;points=[[0,0.5],[1,0.5]];portConstraint=eastwest;rotatable=0;whiteSpace=wrap;html=1;" vertex="1" parent="5FhTHJaJXCoP0YKVLGFU-222">
          <mxGeometry y="210" width="167" height="30" as="geometry" />
        </mxCell>
        <mxCell id="5FhTHJaJXCoP0YKVLGFU-232" value="Product" style="swimlane;fontStyle=0;childLayout=stackLayout;horizontal=1;startSize=30;horizontalStack=0;resizeParent=1;resizeParentMax=0;resizeLast=0;collapsible=1;marginBottom=0;whiteSpace=wrap;html=1;fillColor=#fff2cc;strokeColor=#d6b656;" vertex="1" parent="1">
          <mxGeometry x="3602" y="1855" width="142" height="180" as="geometry" />
        </mxCell>
        <mxCell id="5FhTHJaJXCoP0YKVLGFU-233" value="id: string" style="text;strokeColor=none;fillColor=none;align=left;verticalAlign=middle;spacingLeft=4;spacingRight=4;overflow=hidden;points=[[0,0.5],[1,0.5]];portConstraint=eastwest;rotatable=0;whiteSpace=wrap;html=1;" vertex="1" parent="5FhTHJaJXCoP0YKVLGFU-232">
          <mxGeometry y="30" width="142" height="30" as="geometry" />
        </mxCell>
        <mxCell id="5FhTHJaJXCoP0YKVLGFU-234" value="name: string" style="text;strokeColor=none;fillColor=none;align=left;verticalAlign=middle;spacingLeft=4;spacingRight=4;overflow=hidden;points=[[0,0.5],[1,0.5]];portConstraint=eastwest;rotatable=0;whiteSpace=wrap;html=1;" vertex="1" parent="5FhTHJaJXCoP0YKVLGFU-232">
          <mxGeometry y="60" width="142" height="30" as="geometry" />
        </mxCell>
        <mxCell id="5FhTHJaJXCoP0YKVLGFU-235" value="price: float" style="text;strokeColor=none;fillColor=none;align=left;verticalAlign=middle;spacingLeft=4;spacingRight=4;overflow=hidden;points=[[0,0.5],[1,0.5]];portConstraint=eastwest;rotatable=0;whiteSpace=wrap;html=1;" vertex="1" parent="5FhTHJaJXCoP0YKVLGFU-232">
          <mxGeometry y="90" width="142" height="30" as="geometry" />
        </mxCell>
        <mxCell id="5FhTHJaJXCoP0YKVLGFU-236" value="color: Array" style="text;strokeColor=none;fillColor=none;align=left;verticalAlign=middle;spacingLeft=4;spacingRight=4;overflow=hidden;points=[[0,0.5],[1,0.5]];portConstraint=eastwest;rotatable=0;whiteSpace=wrap;html=1;" vertex="1" parent="5FhTHJaJXCoP0YKVLGFU-232">
          <mxGeometry y="120" width="142" height="30" as="geometry" />
        </mxCell>
        <mxCell id="5FhTHJaJXCoP0YKVLGFU-237" value="size: array" style="text;strokeColor=none;fillColor=none;align=left;verticalAlign=middle;spacingLeft=4;spacingRight=4;overflow=hidden;points=[[0,0.5],[1,0.5]];portConstraint=eastwest;rotatable=0;whiteSpace=wrap;html=1;" vertex="1" parent="5FhTHJaJXCoP0YKVLGFU-232">
          <mxGeometry y="150" width="142" height="30" as="geometry" />
        </mxCell>
        <mxCell id="5FhTHJaJXCoP0YKVLGFU-238" value="Order" style="swimlane;fontStyle=0;childLayout=stackLayout;horizontal=1;startSize=30;horizontalStack=0;resizeParent=1;resizeParentMax=0;resizeLast=0;collapsible=1;marginBottom=0;whiteSpace=wrap;html=1;fillColor=#e1d5e7;strokeColor=#9673a6;" vertex="1" parent="1">
          <mxGeometry x="3335" y="1965" width="177" height="240" as="geometry" />
        </mxCell>
        <mxCell id="5FhTHJaJXCoP0YKVLGFU-239" value="id: string" style="text;strokeColor=none;fillColor=none;align=left;verticalAlign=middle;spacingLeft=4;spacingRight=4;overflow=hidden;points=[[0,0.5],[1,0.5]];portConstraint=eastwest;rotatable=0;whiteSpace=wrap;html=1;" vertex="1" parent="5FhTHJaJXCoP0YKVLGFU-238">
          <mxGeometry y="30" width="177" height="30" as="geometry" />
        </mxCell>
        <mxCell id="5FhTHJaJXCoP0YKVLGFU-240" value="date: Date" style="text;strokeColor=none;fillColor=none;align=left;verticalAlign=middle;spacingLeft=4;spacingRight=4;overflow=hidden;points=[[0,0.5],[1,0.5]];portConstraint=eastwest;rotatable=0;whiteSpace=wrap;html=1;" vertex="1" parent="5FhTHJaJXCoP0YKVLGFU-238">
          <mxGeometry y="60" width="177" height="30" as="geometry" />
        </mxCell>
        <mxCell id="5FhTHJaJXCoP0YKVLGFU-241" value="" style="endArrow=none;html=1;rounded=0;entryX=1.001;entryY=0.094;entryDx=0;entryDy=0;entryPerimeter=0;exitX=0.002;exitY=0.095;exitDx=0;exitDy=0;exitPerimeter=0;" edge="1" parent="5FhTHJaJXCoP0YKVLGFU-238" source="5FhTHJaJXCoP0YKVLGFU-244" target="5FhTHJaJXCoP0YKVLGFU-244">
          <mxGeometry width="50" height="50" relative="1" as="geometry">
            <mxPoint x="2" y="151" as="sourcePoint" />
            <mxPoint x="111" y="165" as="targetPoint" />
          </mxGeometry>
        </mxCell>
        <mxCell id="5FhTHJaJXCoP0YKVLGFU-242" value="total: float" style="text;strokeColor=none;fillColor=none;align=left;verticalAlign=middle;spacingLeft=4;spacingRight=4;overflow=hidden;points=[[0,0.5],[1,0.5]];portConstraint=eastwest;rotatable=0;whiteSpace=wrap;html=1;" vertex="1" parent="5FhTHJaJXCoP0YKVLGFU-238">
          <mxGeometry y="90" width="177" height="30" as="geometry" />
        </mxCell>
        <mxCell id="5FhTHJaJXCoP0YKVLGFU-243" value="status: array (&#39;cart&#39;, &#39;order&#39;)" style="text;strokeColor=none;fillColor=none;align=left;verticalAlign=middle;spacingLeft=4;spacingRight=4;overflow=hidden;points=[[0,0.5],[1,0.5]];portConstraint=eastwest;rotatable=0;whiteSpace=wrap;html=1;" vertex="1" parent="5FhTHJaJXCoP0YKVLGFU-238">
          <mxGeometry y="120" width="177" height="30" as="geometry" />
        </mxCell>
        <mxCell id="5FhTHJaJXCoP0YKVLGFU-244" value="add-product()" style="text;strokeColor=none;fillColor=none;align=left;verticalAlign=middle;spacingLeft=4;spacingRight=4;overflow=hidden;points=[[0,0.5],[1,0.5]];portConstraint=eastwest;rotatable=0;whiteSpace=wrap;html=1;" vertex="1" parent="5FhTHJaJXCoP0YKVLGFU-238">
          <mxGeometry y="150" width="177" height="30" as="geometry" />
        </mxCell>
        <mxCell id="5FhTHJaJXCoP0YKVLGFU-245" value="create()" style="text;strokeColor=none;fillColor=none;align=left;verticalAlign=middle;spacingLeft=4;spacingRight=4;overflow=hidden;points=[[0,0.5],[1,0.5]];portConstraint=eastwest;rotatable=0;whiteSpace=wrap;html=1;" vertex="1" parent="5FhTHJaJXCoP0YKVLGFU-238">
          <mxGeometry y="180" width="177" height="30" as="geometry" />
        </mxCell>
        <mxCell id="5FhTHJaJXCoP0YKVLGFU-246" value="update-status()" style="text;strokeColor=none;fillColor=none;align=left;verticalAlign=middle;spacingLeft=4;spacingRight=4;overflow=hidden;points=[[0,0.5],[1,0.5]];portConstraint=eastwest;rotatable=0;whiteSpace=wrap;html=1;" vertex="1" parent="5FhTHJaJXCoP0YKVLGFU-238">
          <mxGeometry y="210" width="177" height="30" as="geometry" />
        </mxCell>
        <mxCell id="5FhTHJaJXCoP0YKVLGFU-247" value="" style="edgeStyle=entityRelationEdgeStyle;fontSize=12;html=1;endArrow=ERzeroToMany;startArrow=ERzeroToOne;rounded=0;exitX=1;exitY=0.5;exitDx=0;exitDy=0;entryX=0;entryY=0.5;entryDx=0;entryDy=0;" edge="1" parent="1" source="5FhTHJaJXCoP0YKVLGFU-223" target="5FhTHJaJXCoP0YKVLGFU-239">
          <mxGeometry width="100" height="100" relative="1" as="geometry">
            <mxPoint x="3388" y="2077" as="sourcePoint" />
            <mxPoint x="3488" y="1977" as="targetPoint" />
          </mxGeometry>
        </mxCell>
        <mxCell id="5FhTHJaJXCoP0YKVLGFU-248" value="" style="edgeStyle=entityRelationEdgeStyle;fontSize=12;html=1;endArrow=ERzeroToMany;startArrow=ERzeroToOne;rounded=0;exitX=1;exitY=0.5;exitDx=0;exitDy=0;entryX=0;entryY=0.5;entryDx=0;entryDy=0;" edge="1" parent="1" source="5FhTHJaJXCoP0YKVLGFU-239" target="5FhTHJaJXCoP0YKVLGFU-233">
          <mxGeometry width="100" height="100" relative="1" as="geometry">
            <mxPoint x="3436" y="1859" as="sourcePoint" />
            <mxPoint x="3509" y="1892" as="targetPoint" />
            <Array as="points">
              <mxPoint x="3607" y="1795" />
            </Array>
          </mxGeometry>
        </mxCell>
      </root>
    </mxGraphModel>
  </diagram>
</mxfile>
